<?xml version="1.0" encoding="utf-8"?>
<!-- Generator: Adobe Illustrator 25.2.0, SVG Export Plug-In . SVG Version: 6.00 Build 0)  -->
<svg version="1.1" id="Layer_1" xmlns="http://www.w3.org/2000/svg" xmlns:xlink="http://www.w3.org/1999/xlink" x="0px" y="0px"
	 viewBox="0 0 1188.88635 476.20715" style="enable-background:new 0 0 1188.88635 476.20715;" xml:space="preserve">
<style type="text/css">
	.st0{fill-rule:evenodd;clip-rule:evenodd;fill:#333333;}
	.st1{fill-rule:evenodd;clip-rule:evenodd;fill:#111111;}
	.st2{fill-rule:evenodd;clip-rule:evenodd;}
	.st3{fill-rule:evenodd;clip-rule:evenodd;fill:#1A1A1A;}
	.st4{fill-rule:evenodd;clip-rule:evenodd;fill:#CBCBCB;}
	.st5{fill-rule:evenodd;clip-rule:evenodd;fill:#989898;}
	.st6{fill-rule:evenodd;clip-rule:evenodd;fill:#666666;}
	.st7{fill-rule:evenodd;clip-rule:evenodd;fill:#B2B2B2;}
	.st8{fill-rule:evenodd;clip-rule:evenodd;fill:#0C0C0C;}
	.st9{fill-rule:evenodd;clip-rule:evenodd;fill:#313131;}
	.st10{opacity:0.1;fill-rule:evenodd;clip-rule:evenodd;fill:#FFFFFF;}
	.st11{fill-rule:evenodd;clip-rule:evenodd;fill:#808080;}
	.st12{fill-rule:evenodd;clip-rule:evenodd;fill:#E5E5E5;}
	.st13{fill:#313131;}
	.st14{fill:#B2B2B2;}
	.st15{fill-rule:evenodd;clip-rule:evenodd;fill:#DB0000;}
	.st16{opacity:0.3;fill-rule:evenodd;clip-rule:evenodd;fill:#333333;}
	.st17{fill-rule:evenodd;clip-rule:evenodd;fill:#FFFFFF;}
	.st18{fill-rule:evenodd;clip-rule:evenodd;fill:#FF6700;}
	.st19{fill-rule:evenodd;clip-rule:evenodd;fill:#4D4D4D;}
</style>
<g>
	<g>
		<path class="st0" d="M479.80569,476.20715h44.0806c37.42999,0,67.77277-46.81232,67.77277-104.55569
			s-30.34277-104.5531-67.77283-104.5531h-44.0806C439.04608,267.09836,437.71149,476.20715,479.80569,476.20715z"/>
		<path class="st1" d="M479.80569,476.20715c37.33139,0,67.77481-46.97079,67.77481-104.55771
			s-30.44342-104.55301-67.77481-104.55301c-37.32681,0-67.7742,46.96609-67.7742,104.55301
			S442.47888,476.20715,479.80569,476.20715z"/>
		<path class="st1" d="M479.80569,444.78625c26.11411,0,47.4108-32.85211,47.4108-73.13681
			c0-40.28009-21.29669-73.13681-47.4108-73.13681c-26.1102,0-47.40619,32.85669-47.40619,73.13681
			C432.39948,411.93414,453.6955,444.78625,479.80569,444.78625z"/>
		<path class="st0" d="M479.8096,434.38599c22.39651,0,40.66489-28.18341,40.66489-62.73651
			c0-34.5524-18.2684-62.73248-40.66492-62.73248c-22.39969,0-40.66821,28.18011-40.66821,62.73248
			C439.14139,406.20255,457.40988,434.38599,479.8096,434.38599z"/>
		<path class="st1" d="M487.6684,433.20984c18.69531-5.6514,32.80219-31.0611,32.80219-61.55841
			c0-30.49539-14.1069-55.90701-32.80219-61.5564c-18.69519,5.64941-32.80209,31.061-32.80209,61.5564
			C454.8663,402.14874,468.97318,427.55844,487.6684,433.20984z"/>
	</g>
	<g>
		<path class="st0" d="M996.01971,476.20715h44.0799c37.43005,0,67.77295-46.81232,67.77295-104.55569
			s-30.34277-104.5531-67.77295-104.5531h-44.0799C955.25812,267.09836,953.9248,476.20715,996.01971,476.20715z"/>
		<path class="st1" d="M996.021,476.20715c37.32751,0,67.77087-46.97079,67.77087-104.55771s-30.44336-104.55301-67.77087-104.55301
			c-37.33069,0-67.77417,46.96609-67.77417,104.55301S958.69031,476.20715,996.021,476.20715z"/>
		<path class="st1" d="M996.021,444.78625c26.11078,0,47.40686-32.85211,47.40686-73.13681
			c0-40.28009-21.29608-73.13681-47.40692-73.13681c-26.11407,0-47.4101,32.85669-47.4101,73.13681
			C948.6109,411.93414,969.90686,444.78625,996.021,444.78625z"/>
		<path class="st0" d="M996.021,434.38599c22.40039,0,40.66492-28.18341,40.66492-62.73651
			c0-34.5524-18.26453-62.73248-40.66492-62.73248c-22.39581,0-40.66418,28.18011-40.66418,62.73248
			C955.35681,406.20255,973.62518,434.38599,996.021,434.38599z"/>
		<path class="st1" d="M1003.88177,433.20984c18.69531-5.6514,32.80206-31.0611,32.80206-61.55841
			c0-30.49539-14.10681-55.90701-32.80212-61.5564c-18.69531,5.64941-32.80212,31.061-32.80212,61.5564
			C971.07971,402.14874,985.18646,427.55844,1003.88177,433.20984z"/>
	</g>
	<polygon class="st2" points="870.146,229.465 47.504,229.465 38.623,374.034 249.87801,414.48999 375.642,414.48999 
		870.146,414.48999 	"/>
	<g>
		<path class="st1" d="M645.17908,476.20715h44.08063c37.42938,0,67.77222-46.81232,67.77222-104.55569
			s-30.34277-104.5531-67.77222-104.5531h-44.08063C604.41748,267.09836,603.08429,476.20715,645.17908,476.20715z"/>
		<path class="st3" d="M645.17908,476.20715c37.33081,0,67.77417-46.97079,67.77417-104.55771
			s-30.44342-104.55301-67.77417-104.55301c-37.32678,0-67.77411,46.96609-67.77411,104.55301
			S607.85229,476.20715,645.17908,476.20715z"/>
		<g>
			<path class="st4" d="M645.17908,444.78625c26.11407,0,47.41022-32.85211,47.41022-73.13681
				c0-40.28009-21.29608-73.13681-47.41022-73.13681c-26.11011,0-47.4068,32.85669-47.4068,73.13681
				C597.77228,411.93414,619.06897,444.78625,645.17908,444.78625z"/>
			<path class="st5" d="M645.18311,434.38599c22.39642,0,40.66418-28.18341,40.66418-62.73651
				c0-34.5524-18.26782-62.73248-40.66418-62.73248c-22.40051,0-40.66821,28.18011-40.66821,62.73248
				C604.51489,406.20255,622.78259,434.38599,645.18311,434.38599z"/>
			<path class="st3" d="M653.04187,433.20984c18.69531-5.6514,32.80212-31.0611,32.80212-61.55841
				c0-30.49539-14.10681-55.90701-32.80212-61.5564c-18.69531,5.64941-32.80212,31.061-32.80212,61.5564
				C620.23981,402.14874,634.34662,427.55844,653.04187,433.20984z"/>
			<path class="st6" d="M652.85376,433.26575c0.40253-0.11969,0.79779-0.24469,1.19513-0.38019l1.745-6.76501l-2.5567-4.9982
				l7.41553-28.72672l7.92401,28.40369l-2.06207,4.26419c4.25409-4.15948,7.78986-8.99493,10.46362-14.31l-6.87219-24.6355
				l13.04712,8.0173c1.26294-5.11609,2.08136-10.33173,2.44623-15.58871l-11.6864-7.1806l11.6048-7.70361
				c-0.42432-5.24612-1.30463-10.44531-2.63098-15.5387l-13.04199,8.6586l6.54199-25.34579
				c-2.85144-5.43033-6.64563-10.31049-11.20538-14.41269l-0.04077,0.15851l2.55798,4.99829l-7.41492,28.72668l-7.92462-28.40369
				l2.46863-5.10489l-2.0246-7.2287l-7.64441,0.09479l-8.40143,10.43192l0.0578,0.2052l1.98907,7.13531l4.10242,0.74399
				l7.92389,28.40369l-18.62091-11.44031l-0.59662-6.30191l-4.67603-2.87381l-0.13611-0.0835l-7.67798,0.00201l-1.64111,27.95581
				h7.67987l3.24078-3.9472l18.61902,11.44101l-18.41052,12.2236l-3.3092-3.80771h-7.67792l2.13641,27.8782h7.67792l4.76019-3.16251
				l0.48138-6.32431l18.40991-12.22171l-7.41492,28.72668l-4.08533,0.91891l6.6098,17.3811L652.85376,433.26575z"/>
			<path class="st7" d="M659.65302,430.29205c6.04816-3.76221,11.10834-8.9169,14.758-15.0336l-4.05902-0.73669l-7.92462-28.4017
				l18.62091,11.4389l0.27228,2.8764c1.95074-5.88306,3.27014-11.95694,3.93597-18.11911l-0.40118,0.48871l-18.6203-11.435
				l18.4118-12.2276l0.4552,0.5242c-0.7608-6.22137-2.19751-12.34131-4.28461-18.25131l-0.23877,3.1434l-18.4118,12.2236
				l7.41681-28.728l4.08533-0.91559l0.04468-0.17889c-4.21619-6.40839-9.33612-11.4054-15.03363-14.49881l-1.21753,4.71939
				l2.55798,5.0022l-7.41479,28.7247l-7.92462-28.40369l2.46851-5.10489l-1.99103-7.13391l-0.05792-0.2066
				c-2.97644,0.9053-5.80157,2.24869-8.38239,3.98599c-2.81335,1.89084-5.37958,4.12564-7.6391,6.6525l0.05988,0.20721l1.987,7.1333
				l4.10242,0.74399l7.922,28.4017l-18.61902-11.43829l-0.59662-6.30191l-4.6759-2.87381l-0.13623-0.08151
				c-3.40631,7.95819-5.58295,16.388-6.4552,25.00049l0.13818,0.0802l4.6759,2.87509l3.24078-3.9472l18.62091,11.439
				l-18.41052,12.22559l-3.30908-3.80771l-4.62402,3.07101l-0.13623,0.08749c0.54401,4.36877,1.40778,8.69174,2.58429,12.93411
				c1.11652,4.03864,2.55865,7.9801,4.31232,11.78561l0.13611-0.08951l4.62402-3.073l0.48151-6.32431l18.40979-12.22171
				l-7.41553,28.72672l-4.08459,0.9169l-1.86279,7.21561l-0.05389,0.20911c4.36377,4.76965,9.97791,8.21979,16.20441,9.9584
				l0.05591-0.2092l1.86078-7.2175l-2.55798-5.0022l7.41681-28.7247l7.92389,28.40369l-2.46851,5.1055L659.65302,430.29205z"/>
			<path class="st4" d="M658.59991,399.30005c-9.8985,6.57031-21.37433-0.4808-25.63519-15.74921
				c-4.2583-15.27039,0.31171-32.9758,10.20831-39.54611c9.8985-6.5722,21.37433,0.47891,25.63519,15.74731
				C673.06647,375.02246,668.4964,392.72784,658.59991,399.30005z"/>
			<path class="st0" d="M655.42297,387.91376c-5.82123,3.8649-12.57098-0.28159-15.07642-9.26321
				c-2.50598-8.9809,0.18292-19.39581,6.0033-23.26141c5.82111-3.8649,12.57233,0.28149,15.07831,9.26309
				C663.93231,373.63324,661.24536,384.04874,655.42297,387.91376z"/>
		</g>
	</g>
	<g>
		<path class="st1" d="M131.8783,476.20715h44.0799c37.4301,0,67.7729-46.81232,67.7729-104.55569
			s-30.3428-104.5531-67.7729-104.5531h-44.0799C91.11669,267.09836,89.78339,476.20715,131.8783,476.20715z"/>
		<path class="st3" d="M131.88029,476.20715c37.3268,0,67.7702-46.97079,67.7702-104.55771s-30.44341-104.55301-67.7702-104.55301
			c-37.33141,0-67.7748,46.96609-67.7748,104.55301S94.54889,476.20715,131.88029,476.20715z"/>
		<g>
			<path class="st4" d="M131.88029,444.78625c26.11009,0,47.4062-32.85211,47.4062-73.13681
				c0-40.28009-21.2961-73.13681-47.4062-73.13681c-26.1148,0-47.4108,32.85669-47.4108,73.13681
				C84.46949,411.93414,105.76549,444.78625,131.88029,444.78625z"/>
			<path class="st5" d="M131.88029,434.38599c22.3997,0,40.6642-28.18341,40.6642-62.73651
				c0-34.5524-18.2645-62.73248-40.6642-62.73248c-22.3965,0-40.6649,28.18011-40.6649,62.73248
				C91.21539,406.20255,109.48379,434.38599,131.88029,434.38599z"/>
			<path class="st3" d="M139.74039,433.20984c18.6953-5.6514,32.80209-31.0611,32.80209-61.55841
				c0-30.49539-14.1068-55.90701-32.80209-61.5564c-18.6953,5.64941-32.8021,31.061-32.8021,61.5564
				C106.93829,402.14874,121.04509,427.55844,139.74039,433.20984z"/>
			<path class="st6" d="M139.55229,433.26575c0.4025-0.11969,0.79781-0.24469,1.1951-0.38019l1.745-6.76501l-2.556-4.9982
				l7.4149-28.72672l7.92461,28.40369l-2.0621,4.26419c4.25407-4.15952,7.78976-8.99496,10.4635-14.31l-6.8728-24.6355
				l13.04781,8.0173c1.26228-5.11621,2.08072-10.33179,2.4462-15.58871l-11.685-7.18069l11.6028-7.70361
				c-0.42409-5.24609-1.30421-10.44531-2.6304-15.5387l-13.0425,8.6586l6.5426-25.34579
				c-2.85167-5.43024-6.64586-10.31036-11.20551-14.41269l-0.0394,0.15851l2.5567,4.99829l-7.4155,28.72672l-7.924-28.40369
				l2.4686-5.10489l-2.0246-7.2287l-7.6451,0.09479l-8.4008,10.43192l0.0573,0.2052l1.9897,7.13531l4.1017,0.74399l7.9239,28.40369
				l-18.6203-11.44031l-0.5966-6.30191l-4.6766-2.87381l-0.1355-0.0835l-7.6786,0.00201l-1.6404,27.95581h7.6799l3.2408-3.9472
				L133.72,371.93701l-18.4098,12.2236l-3.3092-3.80771h-7.6786l2.137,27.8782h7.678l4.7601-3.16251l0.4809-6.32431
				l18.40981-12.22171l-7.41479,28.72668l-4.0853,0.91891l6.6097,17.3811L139.55229,433.26575z"/>
			<path class="st7" d="M146.3521,430.29205c6.04799-3.76218,11.108-8.9169,14.7574-15.0336l-4.05901-0.73669l-7.924-28.4017
				l18.621,11.4389l0.2717,2.8764c1.95128-5.8829,3.27072-11.95685,3.936-18.11911l-0.4006,0.48871l-18.621-11.435l18.4118-12.2276
				l0.4552,0.5242c-0.76079-6.22137-2.19748-12.34131-4.28461-18.25131l-0.2388,3.1434l-18.4118,12.2236l7.41679-28.728
				l4.0853-0.91559l0.0448-0.17889c-4.21561-6.40839-9.33549-11.4054-15.0336-14.49881l-1.2175,4.71939l2.558,5.0022
				l-7.4149,28.7247l-7.9239-28.40369l2.46851-5.10489l-1.9917-7.13391l-0.05589-0.2066
				c-2.97704,0.9054-5.80274,2.24875-8.3843,3.98599c-2.8132,1.89084-5.37923,4.12564-7.6385,6.6525l0.0592,0.20721l1.9877,7.1333
				l4.1018,0.74399l7.92261,28.4017l-18.619-11.43829l-0.5966-6.30191l-4.6766-2.87381l-0.1362-0.08151
				c-3.40608,7.95822-5.58244,16.38803-6.4545,25.00049l0.1381,0.0802l4.676,2.87509l3.2421-3.9472l18.619,11.439l-18.4099,12.22559
				l-3.3098-3.80771l-4.6233,3.07101l-0.1362,0.08749c0.54342,4.3688,1.40697,8.6918,2.5837,12.93411
				c1.11635,4.03876,2.55869,7.98022,4.3128,11.78561l0.1362-0.08951l4.624-3.073l0.4808-6.32431l18.4099-12.22171l-7.4149,28.72672
				l-4.0853,0.9169l-1.8608,7.21561l-0.0559,0.20911c4.36379,4.76965,9.97787,8.21979,16.20439,9.9584l0.05589-0.2092
				l1.86079-7.2175l-2.558-5.0022l7.41679-28.7247l7.92461,28.40369l-2.46919,5.1055L146.3521,430.29205z"/>
			<path class="st4" d="M145.29839,399.30005c-9.8985,6.57031-21.3743-0.4808-25.6346-15.74921
				c-4.2583-15.27039,0.3111-32.9758,10.2083-39.54611c9.89861-6.5722,21.3744,0.47891,25.6346,15.74731
				C159.765,375.02246,155.19559,392.72784,145.29839,399.30005z"/>
			<path class="st0" d="M142.12149,387.91376c-5.82111,3.8649-12.5703-0.28159-15.0764-9.26321
				c-2.5054-8.9809,0.1829-19.39581,6.004-23.26141c5.82111-3.8649,12.5723,0.28149,15.07829,9.26309
				C150.63148,373.63324,147.9446,384.04874,142.12149,387.91376z"/>
		</g>
	</g>
	<path class="st1" d="M1125.65613,173.793c-67.98132-17.9455-144.84363-29.17931-229.10767-34.1815L776.25348,28.9164
		C737.44208-1.531,625.53271-0.33585,523.633,0.16205c-117.81201,0.5762-310.077,12.8893-405.3656,25.6576
		c-6.763,0.9057-14.5429,6.0724-17.7093,10.7227L35.24129,132.571l8.8658,17.3922L22.57039,168.619l-5.5041,60.2758l-3.9564,6.2368
		L2.82729,263.3656l-2.8119,56.2142c-0.1493,3.00589,1.3365,13.52661,2.6454,16.68381l10.6484,25.6998l7.5122,6.80179
		l17.6942,5.49091l8.9882-18.13031c0-64.39398,40.41159-112.181,88.7617-112.181c48.3481,0,84.3436,55.3808,84.3436,112.181
		c0,19.45239,5.5284,40.0755,14.2561,58.36441h315.70413l9.09277-15.44339l-0.5459-42.92099
		c0-56.7963,38.78888-112.181,86.55359-112.181c47.76599,0,84.34753,55.96619,84.34753,112.181
		c0,18.056-0.00922,24.0593-0.04071,42.1152l16.58258,16.24921h410.27832c18.11389,0.13409,26.67188-7.61481,26.86401-22.28079
		l1.22864-14.15869h-6.24988l3.00391-30.1304h5.90857l1.23584-23.5094c0.88745-12.27029-8.64941-18.2572-15.35583-25.0741
		c3.02954-22.2077-0.82031-45.5119-2.37915-56.7628c0-8.1416-11.16467-44.2476-17.35876-50.4377
		C1147.56189,183.24216,1136.52612,176.66075,1125.65613,173.793z"/>
	<path class="st1" d="M895.51379,138.73665L776.25342,28.91635c-2.86725-2.2218-5.90594-4.21312-9.08752-5.9553H519.01819
		c-5.46649,0-7.3931,4.0833-5.20941,7.8233l58.4256,99.96721c3.01508,5.1588,7.86267,7.99631,14.87311,8.0174l309.44086,0.84579
		L895.51379,138.73665z"/>
	<path class="st8" d="M44.10709,149.96515l-21.5367,18.6519l-5.5041,60.2778l-7.9128,12.4696
		c-3.8781,6.11189-5.9033,13.5675-6.3302,22.10179c-1.0011,20.0542-1.8029,36.04028-2.806,56.09509
		c-0.1716,4.4971,0.9492,12.55719,2.7054,16.85101l10.6556,25.71552c1.253,3.02039,5.2949,5.97171,7.4431,6.63739l16.5583,5.13699
		c6.6156,0.95239,10.128-2.2955,10.1241-10.31091v-7.46548c0-64.39398,40.4129-112.181,88.76171-112.181
		c48.3481,0,82.888,55.40311,84.3436,112.181l1.1024,42.92099l4.4727,12.48999c2.54933,1.79901,5.56349,2.82446,8.681,2.9534
		h315.70609l9.59991-15.44339l-1.05499-42.92099c0-56.7963,38.78888-112.181,86.55359-112.181
		c47.76599,0,84.34558,55.96622,84.34558,112.181c0,17.7876-0.01318,25.3103-0.04077,43.0979l15.67688,15.26651h65.14899
		l-8.94208-42.0574l3.65637-24.21649l-0.45911-45.75781l-7.5918-18.77951l-6.41443-21.4158l5.63702-53.7923l-219.1026-26.80411
		l-325.32111-0.4288c-8.60931,0.06099-17.15898-1.43214-25.23801-4.40759l-49.0808-18.4454
		c-9.7663-3.6716-27.5401-8.3212-39.48421-8.3324L44.10709,149.96515z"/>
	<path class="st9" d="M17.06629,228.89485l-7.9128,12.4696c-2.92296,4.7504-4.84597,10.04723-5.6514,15.56639l49.2525-31.8714
		c2.5317-1.6391,0.9209-5.7672-1.6878-5.0844L17.06629,228.89485z"/>
	<path class="st1" d="M542.24017,414.49026h8.33112c8.01868-0.85251,11.44232-6.60059,11.2818-15.44339
		c-0.18817-10.3129-1.51941-25.07419-1.78778-42.92099c-0.85437-56.789,37.83978-112.181,85.60449-112.181
		s84.34558,55.96619,84.34558,112.181c0,14.5712-0.02441,28.34781-0.04077,42.92099
		c-0.0072,5.60071,2.3811,15.44339,15.09869,15.44339h2.97369c3.62817-16.32941,2.55078-37.49332,2.55078-53.54639
		c0-88.58209-45.31262-141.69431-105.19312-141.69431c-59.87848,0-107.28467,55.0098-107.28467,138.672
		C538.12,385.37799,541.3042,401.03201,542.24017,414.49026z"/>
	<path class="st1" d="M29.52479,371.46524l8.9908,2.79089c5.2785,0.24399,8.1476-2.46661,8.9882-7.67068v-10.45959
		c0-64.39398,40.4129-112.181,88.76171-112.181c48.3481,0,82.884,55.1091,84.3436,112.181
		c0.4644,18.1362-0.0237,29.1759-0.0388,42.92099c-0.0072,6.01251,2.41991,10.05499,5.61391,12.48999l15.13029-12.49591
		c0.955-12.91571,0.4196-26.7778,0.4196-38.09711c0-88.58209-45.3125-141.69431-105.19299-141.69431
		c-59.8785,0-107.2847,55.0098-107.2847,138.672C29.25639,362.78955,29.35509,367.28656,29.52479,371.46524z"/>
	<path class="st1" d="M175.7681,122.64605l-85.4552,0.004c-6.4308,0-10.7845-6.0375-7.0458-12.3539l36.4526-61.542
		c2.2265-3.7623,6.8262-7.2044,13.88519-8.0844c111.03061-13.8326,218.03378-21.8275,333.33249-15.2737
		c12.10071,0.686,21.56839,10.4076,28.603,21.915c18.21982,29.808,34.6813,58.7991,52.17947,92.07091
		c3.22961,6.1414-1.07013,12.6933-6.86823,12.6933l-289.66299,0.002l-50.0392-23.8284
		C194.59959,125.12975,183.452,122.64805,175.7681,122.64605z"/>
	<path class="st10" d="M183.6572,118.05955c-2.61327-0.37621-5.24896-0.57553-7.8891-0.5966H90.31289
		c-2.877,0-4.0458-2.0581-2.5862-4.5233l36.4526-61.5433c2.0417-3.4453,6.26711-5.1068,10.0649-5.5804
		c29.00229-3.6117,57.90942-6.7621,86.72139-9.4512l-37.3084,81.6948H183.6572z M396.05267,28.35664
		c23.43707,0.1604,46.9671,0.89883,70.59,2.2153c10.922,0.6209,19.22281,10.8496,24.47501,19.4451
		c18.36911,30.0534,35.61932,60.6073,52.01569,91.78151c1.08929,2.06731,0.20331,5.0936-2.28168,5.0936h-162.5076
		C378.34409,146.89215,396.05267,28.35665,396.05267,28.35664z M252.36137,146.89215l-0.0947-0.04469l23.86-114.8232
		c30.4697-1.9818,60.95001-3.2368,91.5394-3.5966l-17.6962,118.46451L252.36137,146.89215z M243.43248,142.64105l21.78871-109.8762
		c-7.78589,0.5499-15.57259,1.14386-23.36011,1.7819l-40.2827,88.2171c0.6228,0.2631,1.2253,0.5314,1.8009,0.8051
		L243.43248,142.64105z"/>
	<path class="st10" d="M888.33899,134.39415l-301.21643-0.811c-4.56812-0.0125-8.07129-1.4444-10.41162-5.4494l-58.4071-99.9337
		c0.23657-0.03431,0.47522-0.05232,0.71429-0.0539h253.27686c0.96039,0.6617,1.90161,1.3497,2.81329,2.064l110.34851,101.54449
		L888.33899,134.39415z"/>
	<path class="st3" d="M252.36139,146.89215l-0.0947-0.04469l11.89749-57.2548c31.43332,3.7124,62.29944,7.6563,92.59839,11.8317
		l-6.79269,45.4678L252.36139,146.89215z M554.03302,82.89345c-1.25427,0-2.50201,0.0165-3.75311,0.0204l26.43109,45.21989
		c2.34027,4.005,5.84351,5.4369,10.41162,5.4494l301.21637,0.811l-2.8822-2.6395l-2.70343-2.48759
		c-92.46222-29.172-205.99158-46.3736-328.7204-46.3736L554.03302,82.89345z M126.51559,75.232
		c-5.2258-0.4735-10.428-0.9267-15.6354-1.3812l-23.1535,39.0889c-1.4596,2.4652-0.2908,4.5233,2.5862,4.5233h85.4552
		c2.64014,0.02107,5.27583,0.22039,7.8891,0.5966l16.2748-35.6377C175.72737,79.87511,151.25525,77.47848,126.51559,75.232z
		 M536.93207,130.1136c-48.45459-8.8376-99.39429-17.1364-152.3815-24.7697l-6.20651,41.54831h162.50763
		c2.48499,0,3.37097-3.02631,2.28168-5.0936c-2.05481-3.9045-4.12189-7.7995-6.20129-11.685V130.1136z M254.18137,88.4292
		c-11.6382-1.35171-23.34401-2.67117-35.1174-3.9584l-17.4856,38.2931c0.6228,0.2631,1.2253,0.5314,1.8009,0.8051l40.05319,19.0721
		L254.18137,88.4292z"/>
	<path class="st11" d="M1131.08923,201.69745H939.83636c-7.43909,0-13.30103,2.312-16.12213,9.47881l-18.9209,48.1002
		c-2.33063,5.52145-1.96765,11.81177,0.9826,17.0285l12.65448,21.17499c2.35681,3.9433,6.14349,7.08139,11.23511,7.10571
		l207.89905,1.09451c4.20044,0.01651,7.98315-1.5773,9.79395-6.76819l8.46851-24.25531
		c1.53748-4.23398,1.698-8.84549,0.4585-13.17609l-11.2561-47.70151
		C1143.19507,206.00235,1137.93372,201.69745,1131.08923,201.69745z"/>
	<path class="st3" d="M1131.08923,210.33701c3.36499,0,4.80676,2.3627,5.52966,5.4258l11.25806,47.70161
		c0.7511,3.18411,0.88196,5.22379-0.20923,8.3436l-8.4679,24.2572c-0.08667,0.3009-0.22009,0.58633-0.39526,0.84589
		c-0.38892,0.10669-0.79248,0.14954-1.19507,0.12689l-207.89917-1.09451c-1.75812-0.00919-3.03149-1.5043-3.86292-2.89539
		l-12.65448-21.17499c-1.55579-2.92441-1.68829-6.39981-0.3598-9.4342l18.9209-48.1001c1.4411-3.6584,4.4339-4.0018,8.0824-4.0018
		H1131.08923z"/>
	<path class="st1" d="M1127.27625,296.98404l-197.56592-1.04059c-1.75812-0.00919-3.03149-1.5043-3.86292-2.89539
		l-12.65448-21.17499c-1.55579-2.92441-1.68829-6.39981-0.3598-9.4342l18.9209-48.1001
		c1.41882-3.60049,4.34052-3.9886,7.91083-4.0018h180.14789c3.36365,0,4.80676,2.3627,5.52966,5.4258l11.25806,47.70158
		c0.7511,3.18411,0.88196,5.22379-0.2085,8.3436l-8.46863,24.2572c-0.08667,0.3009-0.22009,0.58633-0.39526,0.84589
		C1127.44775,296.94662,1127.36316,296.97119,1127.27625,296.98404z"/>
	<path class="st0" d="M910.37567,238.65915l-8.28369,20.61731c-1.10181,3.02063-1.57825,6.23364-1.40039,9.444h259.24323
		c0.09424-2.44864-0.22217-4.89575-0.93604-7.2399l-5.50208-22.8214L910.37567,238.65915z"/>
	<path class="st12" d="M796.68451,208.47095h95.44318c3.71228,0,4.66339,3.25191,3.49591,6.0914l-17.13239,41.7627
		c-1.53461,3.73669-4.43402,5.9382-8.43701,5.9382h-79.0047c-4.02411,0.0264-7.72668-2.19461-9.5979-5.75729l-11.41461-19.57339
		c-1.70551-2.82642-2.49304-6.11201-2.25409-9.4045l0.5498-7.2847c0.34332-2.5238,2.07507-4.64087,4.48071-5.47771l17.09167-5.312
		C792.10236,208.78596,794.38806,208.45464,796.68451,208.47095z"/>
	<path class="st12" d="M866.36218,283.65466l-68.89832,0.02441c-1.57385-0.04202-2.88379,1.1998-2.92584,2.77368
		c-0.01312,0.49066,0.10071,0.97644,0.33044,1.41022l5.39349,11.24829c0.9696,2.02521,2.39618,3.32819,4.7937,3.3486
		l68.9325,0.04861c2.24091,0,3.62811-2.52841,2.5672-4.89429l-4.49707-10.0274
		C871.16791,285.21451,868.89606,283.64618,866.36218,283.65466z"/>
	<path class="st0" d="M796.92456,347.92035h85.68671c4.67798,0,7.21948,2.6416,5.73169,7.31821l-5.56921,17.5278
		c-1.13,3.5499-3.44733,5.76321-7.7207,5.4278l-67.66498-5.3252c-3.3573-0.09671-6.39087-2.02774-7.8996-5.0285l-6.84259-13.24719
		C790.94562,351.29865,792.65912,347.92035,796.92456,347.92035z"/>
	<path class="st1" d="M868.32758,377.66266l-60.93951-4.7937c-3.3573-0.09671-6.39087-2.02774-7.8996-5.0285l-6.84259-13.24719
		c-1.6687-3.2348-0.06512-6.55179,4.03271-6.67291h75.41528c4.67792,0,7.21753,2.6416,5.73163,7.31821l-5.57111,17.5278
		C871.74091,374.90228,870.30103,376.69763,868.32758,377.66266z"/>
	<path class="st3" d="M1138.60461,347.86774H940.12189c-5.6983-0.02158-10.72571,3.72385-12.33551,9.19009l-8.16467,25.8497
		c-1.72461,5.45541,0.95111,9.30389,7.12219,9.30389h208.12598c4.96545,0,7.88916-3.7084,8.59033-8.80991l3.42285-24.75119
		C1147.62183,353.30676,1145.10974,347.86774,1138.60461,347.86774z"/>
	<path class="st1" d="M1128.08716,347.86774H940.12189c-5.6983-0.02158-10.72571,3.72385-12.33551,9.19009l-8.16467,25.8497
		c-1.72461,5.45541,0.95111,9.30389,7.12219,9.30389h197.60864c4.96533,0,7.88708-3.7084,8.58948-8.80991l3.42371-24.75119
		C1137.10364,353.30676,1134.59229,347.86774,1128.08716,347.86774z"/>
	<path class="st13" d="M258.21609,386.99084h267.88937c3.65741,0,6.62231,2.9649,6.62231,6.62228v0.00003v0.00201
		c0,3.65771-2.96515,6.62289-6.62292,6.62289l0,0H258.21667c-3.65771,0-6.62289-2.96518-6.62289-6.62289v-0.00201
		c-0.00002-3.65741,2.96489-6.62231,6.62228-6.62231H258.21609z"/>
	<path class="st14" d="M368.03519,176.50215h36.06982c2.71249,0,4.91141,2.1989,4.91141,4.91139v0.0014
		c0,2.71359-2.1998,4.91341-4.91339,4.91341h-36.06589c-2.71359,0-4.91339-2.19981-4.91339-4.91341v-0.0013
		C363.12375,178.70113,365.32266,176.50218,368.03519,176.50215z"/>
	<path class="st14" d="M178.62149,176.50215h36.0704c2.71216,0,4.9108,2.19864,4.9108,4.9108v0.002
		c0,2.71359-2.1998,4.91341-4.91339,4.91341h-0.00002h-36.0659c-2.71359,0-4.91341-2.1998-4.91341-4.91339v-0.00002v-0.0013
		c0-2.71254,2.19896-4.9115,4.9115-4.9115H178.62149z"/>
	<path class="st15" d="M38.97209,127.82985l5.135,22.1353L19.64139,200.67c-2.189-0.2144-1.6036,0.0112-3.5986-7.9449
		c-2.31-10.6181-3.3249-27.2606-1.9469-32.4082c1.3799-5.14619,11.0923-22.76221,12.5703-24.83929
		C28.14679,133.39905,32.92209,128.59215,38.97209,127.82985z"/>
	<path class="st16" d="M246.7587,231.66135l-50.7962-24.10989c-6.5986-3.13229-11.4351,0.144-4.1537,6.7215l45.2211,40.853
		c6,5.42191,19.98781,8.7804,30.99721,8.88431l232.50629,2.2337c6.6788,0.07501,10.3031-9.79791-0.7439-11.112l-225.7887-17.58971
		C264.48648,236.80035,254.66618,235.41315,246.7587,231.66135z"/>
	<path class="st1" d="M569.33887,224.49835h-9.35248c-4.01758,0-9.91498,3.2868-13.10712,7.3031l-19.50098,24.54401
		c-3.19208,4.01819-2.51862,7.30701,1.49902,7.30701h9.3526c4.01819,0,9.91687-3.28879,13.10901-7.30701l19.50098-24.54401
		C574.03198,227.78516,573.35718,224.49835,569.33887,224.49835z"/>
	<path class="st1" d="M466.035,103.99745c0.93201-3.0316,4.78049-5.7126,9.48999-6.0447
		c9.65979-0.6801,25.67209-1.6181,31.16891,0.6972c5.72052,2.4113,29.34167,28.8589,32.58771,37.65959
		c1.83063,4.9614-0.03021,10.2189-9.90839,10.2077l-51.39999-0.04671c-4.17279-0.0013-8.97571-1.5063-10.42801-4.9108
		C462.42719,129.55055,462.15488,116.57375,466.035,103.99745z"/>
	<path class="st2" d="M466.035,103.99745c0.20581-0.6429,0.50809-1.2508,0.89651-1.8029l6.3447-0.3039
		c5.7132-0.2723,6.58539,3.1605,7.48059,7.359l5.17191,24.19611c0.8952,4.19839-3.04279,7.86009-8.76129,8.1344l-9.39331,0.4492
		c-0.07959-0.1526-0.1586-0.3071-0.22891-0.4696C462.42328,129.55055,462.15488,116.57375,466.035,103.99745z"/>
	<polygon class="st3" points="1061.98499,249.02499 1051.32898,245.062 1026.04504,245.062 1015.39301,249.02499 
		1015.39301,259.35501 1038.68701,264.039 1059.82605,263.65601 	"/>
	<polygon class="st7" points="1073.09204,249.02499 1062.43994,245.062 1037.15198,245.062 1026.50195,249.02499 
		1026.50195,259.35501 1049.797,264.039 1073.09204,259.35501 	"/>
	<path class="st3" d="M1182.85693,347.92035h-6.45325c-4.68188,0-8.3811,2.64551-8.95728,7.31821l-2.03564,16.5773
		c-0.43481,3.54071,2.52844,6.2572,6.95239,6.24741l7.53662-0.01251L1182.85693,347.92035z"/>
	<path class="st17" d="M1161.8772,208.47095c-6.15845,1.6516-7.27466,4.20039-6.56104,7.03661l10.32544,40.81749
		c0.94385,3.73279,3.95496,5.9382,7.95605,5.9382C1178.1731,262.26324,1166.85181,207.13576,1161.8772,208.47095z"/>
	<path class="st18" d="M885.9599,228.27585h-35.65082c-4.15564,0.20486-7.70294,3.0708-8.77643,7.09061v0.002
		c-0.92609,3.90179,1.5069,7.0905,5.40741,7.0905h35.65082c4.15582-0.20428,7.70343-3.07042,8.77643-7.0905v-0.002
		C892.29407,231.466,889.86041,228.27585,885.9599,228.27585z"/>
	<path class="st19" d="M1166.63342,305.17105H812.18768c-5.37183,0-4.99158,13.26028,7.34583,13.26028h354.4444
		C1179.34058,318.43134,1178.98083,305.17105,1166.63342,305.17105z"/>
	<path class="st16" d="M593.56787,151.88185c83.98047,5.2989,209.01404,19.2524,287.69171,30.0961
		c14.12201,1.94701,22.8681,5.4015,30.97693,10.5872c6.30188,4.0307-6.83142,5.731-11.94739,5.2726l-283.66101-25.4899
		c-8.75781-0.77484-17.14502-3.89519-24.27972-9.0329C585.90118,158.631,586.17346,151.41554,593.56787,151.88185z"/>
</g>
</svg>
