<?xml version="1.0" encoding="utf-8"?>
<!-- Generator: Adobe Illustrator 25.2.0, SVG Export Plug-In . SVG Version: 6.00 Build 0)  -->
<svg version="1.1" id="Layer_1" xmlns="http://www.w3.org/2000/svg" xmlns:xlink="http://www.w3.org/1999/xlink" x="0px" y="0px"
	 viewBox="0 0 1163.09729 474.97089" style="enable-background:new 0 0 1163.09729 474.97089;" xml:space="preserve">
<style type="text/css">
	.st0{fill-rule:evenodd;clip-rule:evenodd;fill:#333333;}
	.st1{fill-rule:evenodd;clip-rule:evenodd;fill:#111111;}
	.st2{fill-rule:evenodd;clip-rule:evenodd;}
	.st3{fill-rule:evenodd;clip-rule:evenodd;fill:#1A1A1A;}
	.st4{fill-rule:evenodd;clip-rule:evenodd;fill:#CBCBCB;}
	.st5{fill-rule:evenodd;clip-rule:evenodd;fill:#989898;}
	.st6{fill-rule:evenodd;clip-rule:evenodd;fill:#666666;}
	.st7{fill-rule:evenodd;clip-rule:evenodd;fill:#B2B2B2;}
	.st8{opacity:0.06;fill-rule:evenodd;clip-rule:evenodd;fill:#FFFFFF;}
	.st9{opacity:0.1;fill-rule:evenodd;clip-rule:evenodd;fill:#FFFFFF;}
	.st10{fill-rule:evenodd;clip-rule:evenodd;fill:#0C0C0C;}
	.st11{fill-rule:evenodd;clip-rule:evenodd;fill:#545454;}
	.st12{fill-rule:evenodd;clip-rule:evenodd;fill:#FFFFFF;}
	.st13{fill-rule:evenodd;clip-rule:evenodd;fill:#FF6700;}
	.st14{fill:#1A1A1A;}
	.st15{fill-rule:evenodd;clip-rule:evenodd;fill:#DB0000;}
	.st16{opacity:0.07;fill-rule:evenodd;clip-rule:evenodd;fill:#666666;}
	.st17{fill-rule:evenodd;clip-rule:evenodd;fill:#4C4C4C;}
	.st18{fill-rule:evenodd;clip-rule:evenodd;fill:#E5E5E5;}
	.st19{opacity:0.05;fill-rule:evenodd;clip-rule:evenodd;fill:#FFFFFF;}
</style>
<g>
	<g>
		<path class="st0" d="M460.47363,474.97089h46.28479c39.29938,0,71.16022-49.15179,71.16022-109.78149
			c0-60.62961-31.86078-109.77951-71.16022-109.77951h-46.28479C417.67633,255.4099,416.27399,474.97089,460.47363,474.97089z"/>
		<path class="st1" d="M460.47363,474.96899c39.1955,0,71.16431-49.3157,71.16431-109.78162
			c0-60.46521-31.96881-109.7775-71.16431-109.7775c-39.1954,0-71.16022,49.31229-71.16022,109.7775
			C389.31342,425.65329,421.27823,474.96899,460.47363,474.96899z"/>
		<path class="st1" d="M460.47363,441.9827c27.4198,0,49.77869-34.49719,49.77869-76.79532
			c0-42.2941-22.35889-76.79059-49.77869-76.79059c-27.4151,0-49.77802,34.49649-49.77802,76.79059
			C410.69562,407.4855,433.05853,441.9827,460.47363,441.9827z"/>
		<path class="st0" d="M460.47763,431.06c23.51532,0,42.69669-29.5896,42.69669-65.87259
			c0-36.27899-19.18137-65.86859-42.69672-65.86859c-23.51862,0-42.70059,29.5896-42.70059,65.86859
			C417.77701,401.4704,436.95901,431.06,460.47763,431.06z"/>
		<path class="st1" d="M468.72983,429.8241c19.6293-5.93289,34.44321-32.61401,34.44321-64.6347s-14.8139-58.70181-34.44321-64.6347
			c-19.62939,5.93289-34.44061,32.61401-34.44061,64.6347S449.10043,423.8912,468.72983,429.8241z"/>
	</g>
	<g>
		<path class="st0" d="M970.45416,474.97089h46.28479c39.29938,0,71.16022-49.15179,71.16022-109.78149
			c0-60.62961-31.86084-109.77951-71.16022-109.77951h-46.28479C927.65686,255.4099,926.25452,474.97089,970.45416,474.97089z"/>
		<path class="st1" d="M970.45416,474.96899c39.1955,0,71.16425-49.3157,71.16425-109.78162
			c0-60.46521-31.96869-109.7775-71.16418-109.7775c-39.19537,0-71.16022,49.31229-71.16022,109.7775
			C899.29395,425.65329,931.25873,474.96899,970.45416,474.96899z"/>
		<path class="st1" d="M970.45416,441.9827c27.4198,0,49.77869-34.49719,49.77869-76.79532
			c0-42.2941-22.35889-76.79059-49.77869-76.79059c-27.4151,0-49.77802,34.49649-49.77802,76.79059
			C920.67615,407.4855,943.039,441.9827,970.45416,441.9827z"/>
		<path class="st0" d="M970.45813,431.06c23.51532,0,42.69672-29.5896,42.69672-65.87259
			c0-36.27899-19.1814-65.86859-42.69672-65.86859c-23.51862,0-42.70068,29.5896-42.70068,65.86859
			C927.75745,401.4704,946.93951,431.06,970.45813,431.06z"/>
		<path class="st1" d="M978.71027,429.8241c19.62927-5.93289,34.4433-32.61401,34.4433-64.6347s-14.81403-58.70181-34.4433-64.6347
			c-19.62927,5.93289-34.44049,32.61401-34.44049,64.6347S959.08093,423.8912,978.71027,429.8241z"/>
	</g>
	<polygon class="st2" points="906.73901,169.032 128.16701,169.032 16.04,370.36899 31.946,379.035 210.81799,417.091 
		906.73901,417.091 	"/>
	<g>
		<path class="st1" d="M131.75993,474.97089h46.284c39.30009,0,71.16029-49.15179,71.16029-109.78149
			c0-60.62961-31.8602-109.77951-71.16029-109.77951h-46.284C88.96194,255.4099,87.56023,474.97089,131.75993,474.97089z"/>
		<path class="st3" d="M131.75993,474.96899c39.19539,0,71.1635-49.3157,71.1635-109.78162
			c0-60.46521-31.96809-109.7775-71.16348-109.7775c-39.19551,0-71.16031,49.31229-71.16031,109.7775
			C60.59963,425.65329,92.56443,474.96899,131.75993,474.96899z"/>
		<g>
			<path class="st4" d="M131.75993,441.9827c27.41901,0,49.778-34.49719,49.778-76.79532
				c0-42.2941-22.35899-76.79059-49.778-76.79059c-27.41581,0-49.77871,34.49649-49.77871,76.79059
				C81.98123,407.4855,104.34413,441.9827,131.75993,441.9827z"/>
			<path class="st5" d="M131.76323,431.06c23.5153,0,42.6973-29.5896,42.6973-65.87259
				c0-36.27899-19.18199-65.86859-42.6973-65.86859c-23.5186,0-42.7007,29.5896-42.7007,65.86859
				C89.06253,401.4704,108.24463,431.06,131.76323,431.06z"/>
			<path class="st3" d="M140.01601,429.8241c19.6293-5.93289,34.4425-32.61401,34.4425-64.6347s-14.8132-58.70181-34.4425-64.6347
				c-19.63,5.93289-34.4413,32.61401-34.4413,64.6347S120.386,423.8912,140.01601,429.8241z"/>
			<path class="st6" d="M139.81799,429.884c0.4216-0.125,0.8373-0.2579,1.255-0.40121l1.8325-7.09979l-2.685-5.2489l7.7865-30.16391
				l8.31931,29.82321l-2.1627,4.478c4.46512-4.36832,8.17653-9.44547,10.9838-15.0257l-7.2142-25.86609l13.69901,8.41791
				c1.32497-5.37213,2.18451-10.84845,2.56911-16.36819l-12.27029-7.53781l12.1842-8.09039
				c-0.44571-5.50864-1.37027-10.96799-2.7632-16.31619l-13.6925,9.0914l6.8689-26.612
				c-2.99503-5.7019-6.97934-10.82626-11.7672-15.13419l-0.0407,0.1658l2.68491,5.25079l-7.78648,30.1619l-8.31921-29.82251
				l2.59151-5.36069l-2.12711-7.59241l-8.0246,0.10059l-8.8231,10.95419l0.0618,0.21451l2.08971,7.4931l4.305,0.7814
				l8.31989,29.82251l-19.5517-12.0126l-0.62419-6.61761l-4.91141-3.01651l-0.1415-0.0874l-8.062,0.00189l-1.7227,29.3522h8.0621
				l3.40251-4.14249l19.55107,12.0112l-19.3314,12.83481l-3.4749-3.99719h-8.062l2.2449,29.2706h8.062l4.99631-3.319l0.50579-6.6413
				l19.3307-12.8334l-7.7858,30.1619l-4.2905,0.96619l6.94189,18.24939L139.81799,429.884z"/>
			<path class="st7" d="M146.95723,426.76099c5.90471-3.47229,11.1792-8.9053,15.496-15.7854l-4.26221-0.7735l-8.3199-29.82059
				l19.5497,12.0112l0.2868,3.02039c2.04723-6.17767,3.433-12.55521,4.134-19.02539l-0.42169,0.513l-19.55099-12.0079
				l19.33128-12.8367l0.4769,0.54791c-0.79938-6.53189-2.30725-12.9574-4.49699-19.16299l-0.252,3.30191l-19.3306,12.8334
				l7.7858-30.1619l4.2905-0.9642l0.04671-0.18811c-4.4267-6.7269-9.8018-11.97379-15.78481-15.22171l-1.2773,4.95419
				l2.68491,5.25409l-7.78639,30.15991l-8.31931-29.82251l2.5916-5.36069l-2.08971-7.49179l-0.05991-0.21771
				c-3.1257,0.95175-6.09274,2.36246-8.804,4.18591c-2.95366,1.98553-5.64763,4.3324-8.0193,6.98599l0.0612,0.2164l2.0883,7.49121
				l4.305,0.7814l8.31989,29.8205l-19.5517-12.01059l-0.6242-6.61761l-4.9114-3.01651l-0.1414-0.08551
				c-3.57764,8.35565-5.86297,17.20706-6.7775,26.25031l0.14341,0.08551l4.91139,3.01639l3.40261-4.14249l19.551,12.00931
				l-19.33131,12.8367l-3.4749-3.99719l-4.8556,3.22559l-0.1414,0.0914c0.5707,4.58716,1.47733,9.12625,2.7126,13.58069
				c1.17314,4.23984,2.68787,8.37769,4.5293,12.37289l0.1414-0.09341l4.8548-3.22559l0.5059-6.6413l19.3306-12.8334l-7.7858,30.1619
				l-4.2905,0.96429l-1.9535,7.5773l-0.0579,0.21829c4.58101,5.00955,10.47652,8.63229,17.01537,10.45572l0.05721-0.2197
				l1.95419-7.57541l-2.68491-5.25409l7.78641-30.16061l8.31929,29.82321l-2.5916,5.362L146.95723,426.76099z"/>
			<path class="st4" d="M145.85162,394.22c-10.3925,6.8985-22.4432-0.50391-26.9159-16.53659
				c-4.47279-16.03271,0.32621-34.62341,10.7187-41.5239c10.3931-6.8992,22.44321,0.5032,26.91389,16.53589
				C161.04173,368.72809,156.24213,387.31949,145.85162,394.22z"/>
			<path class="st6" d="M142.51613,382.26468c-6.1118,4.05899-13.2011-0.29669-15.8315-9.72751
				c-2.631-9.42831,0.1921-20.36401,6.30589-24.423c6.11189-4.0571,13.1985,0.2966,15.8295,9.72751
				C151.45033,367.27048,148.62794,378.20569,142.51613,382.26468z"/>
		</g>
	</g>
	<g>
		<path class="st1" d="M641.74042,474.97089h46.284c39.30011,0,71.16028-49.15179,71.16028-109.78149
			c0-60.62961-31.86023-109.77951-71.16028-109.77951h-46.284C598.94244,255.4099,597.54071,474.97089,641.74042,474.97089z"/>
		<path class="st3" d="M641.74042,474.96899c39.19543,0,71.16351-49.3157,71.16351-109.78162
			c0-60.46521-31.96808-109.7775-71.16351-109.7775c-39.1955,0-71.16028,49.31229-71.16028,109.7775
			C570.58014,425.65329,602.54492,474.96899,641.74042,474.96899z"/>
		<g>
			<path class="st4" d="M641.74042,441.9827c27.41901,0,49.77802-34.49719,49.77802-76.79532
				c0-42.2941-22.35901-76.79059-49.77802-76.79059c-27.41577,0-49.77869,34.49649-49.77869,76.79059
				C591.96173,407.4855,614.32465,441.9827,641.74042,441.9827z"/>
			<path class="st5" d="M641.74359,431.06c23.51544,0,42.69745-29.5896,42.69745-65.87259
				c0-36.27899-19.18201-65.86859-42.69739-65.86859c-23.51862,0-42.70062,29.5896-42.70062,65.86859
				C599.04303,401.4704,618.22498,431.06,641.74359,431.06z"/>
			<path class="st3" d="M649.99585,429.8241c19.63-5.93289,34.44318-32.61401,34.44318-64.6347s-14.81317-58.70181-34.44318-64.6347
				c-19.62933,5.93289-34.44061,32.61401-34.44061,64.6347S630.36652,423.8912,649.99585,429.8241z"/>
			<path class="st6" d="M649.79852,429.884c0.42157-0.125,0.83728-0.2579,1.255-0.40121l1.83252-7.09979l-2.685-5.2489
				l7.7865-30.16391l8.31927,29.82321l-2.16272,4.478c4.46515-4.36832,8.17657-9.44547,10.98383-15.0257l-7.21429-25.86609
				l13.6991,8.41791c1.32489-5.37216,2.18445-10.84848,2.56909-16.36819l-12.27032-7.53781l12.1842-8.09039
				c-0.44568-5.50864-1.37024-10.96799-2.76318-16.31619l-13.6925,9.0914l6.8689-26.612
				c-2.995-5.7019-6.97937-10.82626-11.76721-15.13419l-0.04071,0.1658l2.68488,5.25079l-7.7865,30.1619l-8.31921-29.82251
				l2.59149-5.36069l-2.1272-7.59241l-8.02521,0.10059l-8.82239,10.95419l0.0611,0.21451l2.09039,7.4931l4.30499,0.7814
				l8.31921,29.82251l-19.55103-12.0126l-0.62421-6.61761l-4.9115-3.01651l-0.14142-0.0874l-8.06201,0.00189l-1.72272,29.3522
				h8.06213l3.40247-4.14249l19.55109,12.0112l-19.33142,12.83481l-3.47491-3.99719h-8.06207l2.245,29.2706h8.06201l4.99628-3.319
				l0.5058-6.6413l19.33075-12.8334l-7.78583,30.1619l-4.29053,0.96619l6.94189,18.24939L649.79852,429.884z"/>
			<path class="st7" d="M656.93774,426.76099c5.90472-3.47229,11.1792-8.9053,15.49597-15.7854l-4.26221-0.7735l-8.31989-29.82059
				l19.54968,12.0112l0.2868,3.02039c2.04724-6.17767,3.43298-12.55518,4.13391-19.02539l-0.42157,0.513l-19.55103-12.0079
				l19.33069-12.8367l0.47748,0.54791c-0.79938-6.53189-2.30725-12.9574-4.49701-19.16299l-0.25201,3.30191l-19.33069,12.8334
				l7.78589-30.1619l4.29053-0.9642l0.04669-0.18811c-4.4267-6.7269-9.80182-11.97379-15.7854-15.22171l-1.27667,4.95419
				l2.68488,5.25409l-7.78638,30.15991l-8.31934-29.82251l2.59149-5.36069l-2.09027-7.49179l-0.0592-0.21771
				c-3.12573,0.95175-6.09277,2.36243-8.80402,4.18591c-2.95367,1.98553-5.64758,4.3324-8.01929,6.98599l0.0611,0.2164
				l2.08838,7.49121l4.30499,0.7814l8.31927,29.8205l-19.55109-12.01059l-0.62421-6.61761l-4.91138-3.01651l-0.14142-0.08551
				c-3.578,8.35553-5.86334,17.207-6.77753,26.25031l0.14337,0.08551l4.91138,3.01639l3.40259-4.14249l19.55103,12.00931
				l-19.33142,12.8367l-3.47491-3.99719l-4.85553,3.22559l-0.14142,0.0914c0.57068,4.58716,1.47736,9.12625,2.71259,13.58069
				c1.17285,4.23996,2.68756,8.37781,4.5293,12.37289l0.14142-0.09341l4.8548-3.22559l0.50592-6.6413l19.33063-12.8334
				l-7.78583,30.1619l-4.29053,0.96429l-1.95422,7.5773l-0.05719,0.21829c4.58099,5.00958,10.4765,8.63229,17.01538,10.45569
				l0.05719-0.2197l1.95422-7.57541l-2.68494-5.25409l7.78644-30.16061l8.31927,29.82321l-2.59161,5.362L656.93774,426.76099z"/>
			<path class="st4" d="M655.83197,394.22c-10.3924,6.8985-22.44312-0.50391-26.91583-16.53659
				c-4.47278-16.03271,0.32617-34.62341,10.71875-41.5239c10.39313-6.8992,22.44318,0.5032,26.91388,16.53589
				C671.02222,368.72809,666.22266,387.31949,655.83197,394.22z"/>
			<path class="st6" d="M652.49664,382.26468c-6.11188,4.05899-13.20111-0.29669-15.83154-9.72751
				c-2.63098-9.42831,0.19208-20.36401,6.30591-24.423c6.11121-4.0571,13.19855,0.2966,15.82953,9.72751
				C661.43085,367.27048,658.60846,378.20569,652.49664,382.26468z"/>
		</g>
	</g>
	<path class="st1" d="M893.48993,134.79189c-53.42731-40.8714-122.50317-92.6787-156.34192-107.3406
		c-91.30792-39.5744-518.8739-20.3009-591.55359,13.0886c-14.7541,6.7794,5.60989,11.856-6.65649,22.8398
		c-26.84293,24.02966-63.07193,54.14351-82.3045,75.5047c-3.6433,4.0439-16.3866,6.27431-20.6923,9.32829
		c-6.94319,4.9726-3.492,11.8434-5.1515,20.237c0.4736,4.64439-0.9412,14.64951-3.369,28.00121H635.7962
		c72.07202,0,131.0401,58.9682,131.0401,131.0421v86.93579c0,0.88931-0.01642,1.77719-0.03351,2.6626h368.18744l14.91455-36.1337
		c-1.10242-48.60001,14.6488-97.16251-2.63684-142.0278c-11.83167-36.81841-38.57263-50.6588-81.39954-69.10809
		C1025.35083,152.36639,957.63062,143.20259,893.48993,134.79189z"/>
	<path class="st8" d="M337.14899,11.53759c-89.1024,6.2237-164.6519,16.6425-191.5546,29.0023
		c-14.7541,6.7794,5.60989,11.856-6.65649,22.8398c-26.8429,24.02966-63.0719,54.1435-82.30447,75.50469
		c-3.6433,4.0439-16.3866,6.27431-20.6923,9.32829c-6.94319,4.9726-3.492,11.8434-5.1515,20.237l654.45648,59.7496
		l59.32269,50.99231l32.18909,137.89978h79.24603l35.42389-36.1337c-1.10168-48.60001-2.14819-97.16251-19.43402-142.0278
		c-0.40253-1.2511-0.8465-2.48041-1.31409-3.69791c-62.47211-5.61189-126.0155-13.67731-180.86157-22.7688l-4.31622-6.60249
		l161.92157-2.8559c-62.34442-54.8329-211.86597-59.8266-275.81995-68.21291c-53.42731-40.8714-122.5032-92.6787-156.34192-107.3406
		C398.80743,20.31929,371.39752,15.10789,337.14899,11.53759z"/>
	<path class="st3" d="M141.00394,49.70369c1.74309,3.6505,4.46939,7.8233-2.06599,13.676
		C113.767,85.9123,80.34473,113.79179,60.42,134.79189h833.06995c-53.42731-40.8714-122.50641-92.68-156.34192-107.3406
		c-3.95441-1.7135-8.54291-3.4381-13.70361-5.139c-30.1507-9.9341-86.09521-8.9475-144.27271-11.1233
		C434.81671,5.78949,283.67499,26.69619,141.00394,49.70369z"/>
	<path class="st9" d="M141.00394,49.70369c1.74309,3.6505,4.46939,7.8233-2.06599,13.676
		c-6.05391,5.4205-12.58541,11.14823-19.29191,17.01539c7.922-0.07433,15.86173-0.11709,23.81921-0.12827
		c144.75162,0,282.7395,12.29078,408.59457,34.51158l-84.29761-102.9908C358.34641,16.58319,247.325,32.55809,141.00394,49.70369z"
		/>
	<path class="st9" d="M508.83881,73.77809c142.21271,6.76432,271.961,28.5583,377.65912,61.01381h6.992
		c-53.42731-40.8714-122.50641-92.68-156.34192-107.3406c-3.95441-1.7135-8.54291-3.4381-13.70361-5.139
		c-30.1507-9.9341-86.09521-8.9475-144.27271-11.1233c-37.20978-1.3911-74.86938-1.0327-112.7204,0.6564L508.83881,73.77809z"/>
	<path class="st10" d="M31.98673,153.476c-1.3181,4.1991-0.0612,9.2296-1.1971,14.97369
		c1.768,17.29691-22.674,108.9015-28.0663,171.2018c-0.71039,8.2186-2.558,6.98599-2.7198,13.94629
		c-0.01506,4.8765,2.58225,9.3877,6.8071,11.82309l21.12831,11.8508c6.61825,3.59219,14.89546,1.1391,18.48766-5.47916
		c1.14064-2.1015,1.70858-4.46603,1.64683-6.85635c0-1.74701-0.0763-3.5072-0.0763-5.27521
		c0-68.12469,39.302-124.70261,86.66209-124.70261c47.3595,0,87.616,57.08701,87.616,125.2117
		c0.02641,13.52423-1.53484,27.00482-4.6517,40.16501c-1.60159,6.69531,2.2357,16.44839,12.8223,16.44839l315.67383-0.0592
		c8.96448,0,15.6637-7.34641,13.44641-16.6799c-3.0705-13.06845-4.60901-26.44998-4.58447-39.8743
		c0-68.12469,40.25641-125.2117,87.61658-125.2117c47.3595,0,87.61591,57.08701,87.61591,125.2117
		c0.0249,13.51593-1.53516,26.98816-4.64832,40.14069c-1.59772,6.68799,3.04138,16.78061,13.26617,16.78061h403.96924
		c4.9574,0,13.05701-4.25641,13.05701-13.47079c0.00146-7.43713,0.57666-14.86307,1.7207-22.2117
		c1.64832-10.62402,2.80676-21.28091,3.47559-31.9707c0.52356-4.27869,0.92285-8.69809,1.15759-13.2287
		c0.73474-14.06009,1.01624-28.33661-0.93799-41.8002c-2.57666-18.95923-7.27478-37.56906-14.0061-55.4794
		c-1.26562-3.97266-2.79529-7.85634-4.57861-11.62511c-11.61987,8.0298-33.75916,11.96581-61.17627,13.6404
		c-97.9939,8.67509-262.461-7.05901-391.69489-28.48199l-4.31622-6.60249l105.10492-1.85291
		c40.15582-3.04871,80.80359-5.8974,69.8797-7.8891c-111.26941-20.28371-210.60382-41.045-702.29022-41.045
		C115.93043,155.07368,73.90794,153.76869,31.98673,153.476z"/>
	<polygon class="st11" points="1161.38501,345.67899 749.61798,345.67899 749.61798,351.27301 1160.83801,351.27301 	"/>
	<path class="st10" d="M484.85593,18.23879h-40.81232c32.3082,14.4028,87.62057,88.8321,109.2244,116.55309h40.8136
		C572.47443,107.06689,517.1673,32.64359,484.85593,18.23879z"/>
	<path class="st2" d="M1133.82349,212.8362c-7.19507-9.27631-16.31226-16.63-27.40454-23.2937l-431.5744,0.0079l14.97369,22.9128
		l196.05499,11.4127h210.81671C1107.47583,223.87589,1127.51038,217.44109,1133.82349,212.8362z"/>
	<polygon class="st12" points="861.69501,214.99699 694.00403,205.23599 688.62598,197.008 853.612,197.005 	"/>
	<path class="st1" d="M1162.46191,331.02249c1.45825-34.18539-5.09558-72.8645-19.77258-103.7177
		c-11.61987,8.0298-33.75916,11.96581-61.17627,13.6404c-77.96729,6.9025-182.03833-1.6483-296.31879-16.2215
		c19.56421,32.36411,30.53882,74.776,34.27679,106.2988H1162.46191z"/>
	<path class="st1" d="M546.12494,416.72238h1.95807c8.96448,0,15.56641-7.3425,13.34778-16.67801
		c-3.07178-13.06824-4.61029-26.44992-4.58459-39.8743c0-68.12469,38.39172-123.3477,85.75189-123.3477
		c47.3595,0,85.75183,55.22301,85.75183,123.3477c0.02441,13.5159-1.53564,26.9881-4.64832,40.14072
		c-1.59967,6.68799,3.0835,16.61679,13.3089,16.61679h2.10291c4.73804-17.91467,7.10614-36.37338,7.04382-54.9039
		c0-83.50702-46.36621-151.2016-103.55914-151.2016c-57.1936,0-103.55988,67.69461-103.55988,151.2016
		C538.98926,380.48862,541.37201,398.87958,546.12494,416.72238z"/>
	<path class="st3" d="M739.07062,417.0914h403.73053c4.9574,0,13.05701-4.25641,13.05701-13.47079
		c0-1.10367,0.01233-2.20694,0.03674-3.30981H742.80676c-4.39563,4.97873-9.36334,9.42142-14.80011,13.2359
		C732.02686,417.0914,736.12653,417.0914,739.07062,417.0914z"/>
	<polygon class="st3" points="802.72498,417.08899 1131.47095,417.08899 1141.48596,382.76801 852.99701,382.76801 	"/>
	<path class="st3" d="M1162.41333,331.02249c0.79529-5.87241,0.901-11.81766,0.31494-17.7146H815.96582l2.26007,17.7146H1162.41333z
		"/>
	<path class="st12" d="M1099.49402,196.97449l15.5387-1.8194c4.59644,1.1577,12.22375,8.2746,13.80298,11.8672
		c-7.05713,3.37489-15.07239,7.3945-27.02576,7.97659L1099.49402,196.97449z"/>
	<polygon class="st3" points="1123.77002,285.45401 902.20398,285.45401 909.66302,303.16901 1123.77002,303.16901 	"/>
	<polygon class="st12" points="878.17297,316.63599 856.21997,316.63599 857.63397,327.694 879.586,327.694 	"/>
	<polygon class="st13" points="846.65399,316.63599 824.70099,316.63599 826.11401,327.694 848.06702,327.694 	"/>
	<polygon class="st12" points="1154.52698,316.63599 1138.229,316.63599 1138.18799,327.694 1154.48499,327.694 	"/>
	<rect x="337.25293" y="175.90208" class="st14" width="40.52679" height="8.8342"/>
	<rect x="167.48503" y="175.90208" class="st14" width="40.52679" height="8.8342"/>
	<path class="st15" d="M54.547,140.5255l-20.2503,5.806c-4.939,1.7838-7.5825,5.4258-7.178,11.52451l1.51221,31.6944h34.32672
		l-23.533-35.97771l15.12431-13.0472H54.547z"/>
	<path class="st1" d="M33.39823,379.31659c7.45197,1.08063,14.36901-4.08438,15.44964-11.53635
		c0.11213-0.77322,0.15758-1.55466,0.13586-2.33566c0-1.74701-0.0763-3.50711-0.0763-5.27451
		c0-68.12469,38.3917-123.3477,85.7518-123.3477c47.3595,0,85.75191,55.22301,85.75191,123.3477
		c0.02611,13.52426-1.53534,27.00482-4.6523,40.16501c-1.60361,6.69531,2.3416,16.35901,12.9288,16.35901h4.17081
		c4.71671-17.83801,7.06378-36.21951,6.9807-54.67041c0-83.50702-46.3663-151.2016-103.5598-151.2016
		c-57.1936,0-103.5599,67.69461-103.5599,151.2016C32.71943,367.87238,32.95623,373.64148,33.39823,379.31659z"/>
	<path class="st16" d="M546.12494,416.72238h1.95807c8.96448,0,15.56641-7.3425,13.34778-16.67801
		c-3.07178-13.06824-4.61029-26.44992-4.58459-39.8743c0-68.12469,38.39172-123.3477,85.75189-123.3477
		c47.3595,0,85.75183,55.22301,85.75183,123.3477c0.02441,13.5159-1.53564,26.9881-4.64832,40.14072
		c-1.59967,6.68799,3.0835,16.61679,13.3089,16.61679h2.10291c4.73804-17.91467,7.10614-36.37338,7.04382-54.9039
		c0-83.50702-46.36621-151.2016-103.55914-151.2016c-57.1936,0-103.55988,67.69461-103.55988,151.2016
		C538.98926,380.48862,541.37201,398.87958,546.12494,416.72238z"/>
	<path class="st16" d="M33.39823,379.31659c7.45197,1.08063,14.36901-4.08438,15.44964-11.53635
		c0.11213-0.77322,0.15758-1.55466,0.13586-2.33566c0-1.74701-0.0763-3.50711-0.0763-5.27451
		c0-68.12469,38.3917-123.3477,85.7518-123.3477c47.3595,0,85.75191,55.22301,85.75191,123.3477
		c0.02611,13.52426-1.53534,27.00482-4.6523,40.16501c-1.60361,6.69531,2.3416,16.35901,12.9288,16.35901h4.17081
		c4.71671-17.83801,7.06378-36.21951,6.9807-54.67041c0-83.50702-46.3663-151.2016-103.5598-151.2016
		c-57.1936,0-103.5599,67.69461-103.5599,151.2016C32.71943,367.87238,32.95623,373.64148,33.39823,379.31659z"/>
	<rect x="259.77234" y="335.23798" width="260.85022" height="16.03271"/>
	<path class="st3" d="M540.28345,384.8858H237.92053l-22.15579,15.42499c-2.5343,9.4552,3.97881,16.78061,12.6427,16.78061h319.819
		c7.35522,0.22388,13.49927-5.55722,13.72308-12.91245c0.03973-1.30453-0.11243-2.60785-0.45166-3.86816L540.28345,384.8858z"/>
	<polygon class="st10" points="332.96301,19.944 307.444,134.79201 345.496,134.79201 369.621,25.68 	"/>
	<polygon class="st10" points="221,33.326 167.46899,134.79201 183.244,134.79201 236.658,33.55 	"/>
	<path class="st1" d="M723.76282,22.41879c-30.11853-9.9748-80.0387-19.2195-138.4234-21.4046
		C423.56781-5.045,196.73,17.05089,145.59444,40.53989c-10.4044,4.7786-3.3434,8.7165-2.5804,14.4738
		c102.9146-21.5236,205.6608-29.66,322.91901-33.6486C479.25842,20.91259,557.65131,19.49179,723.76282,22.41879z"/>
	<g>
		<path class="st10" d="M467.94113,90.81389c13.43719-3.90772,25.66089-2.118,39.26059,2.4672
			c21.28882,7.18,30.60388,42.59209,6.29858,42.59209h-41.1088c-9.61511,0-17.48111-7.14841-17.48111-15.8873v-13.2847
			C454.91043,97.96429,458.78653,93.47449,467.94113,90.81389z"/>
		<path class="st10" d="M527.36444,117.06409l18.21777,14.0713c4.22339,3.2612,5.0141,8.1391,2.00092,13.4899
			c-2.77643,4.93311-9.78473,6.2309-18.28882,0.03349l-12.13953-8.8468c-2.62708-1.9166-5.20609-5.0844-3.26898-7.69701
			l5.78229-7.7805C521.60522,117.72249,524.79535,115.08029,527.36444,117.06409z"/>
		<path class="st2" d="M462.90143,99.439h0.00201c4.38519,0,7.991,3.2782,7.991,7.2642v17.047
			c0,3.2795,2.16861,5.0397,5.63101,5.0397h38.08392c7.31091,0,7.32599,7.0833,0,7.0833h-42.21591
			c-10.59369,0-17.483-7.29179-17.483-16.3662v-12.8038C454.91043,102.708,458.50699,99.439,462.90143,99.439z"/>
	</g>
	<polygon class="st17" points="1033.80005,243.289 984.11902,243.289 985.28998,254.304 1034.97205,254.304 	"/>
	<polygon class="st18" points="1040.151,243.289 990.47198,243.289 991.64203,254.304 1041.32202,254.304 	"/>
	<path class="st2" d="M2.16953,343.65259c-0.84059,4.05511-2.0377,4.4057-2.166,9.94519
		c-0.01506,4.8765,2.58225,9.3877,6.8071,11.82309l22.038,12.35919c9.3526,5.40021,20.6606-1.46149,20.1331-12.90179
		l-15.8709-16.06491L2.16953,343.65259z"/>
</g>
<path class="st19" d="M527.93726,294.31152l-7.83905,27.85367l-263.25977-1.31668l-16.99716-83.36307
	C296.28604,290.51065,389.93341,311.50577,527.93726,294.31152z"/>
</svg>
