<?xml version="1.0" encoding="utf-8"?>
<!-- Generator: Adobe Illustrator 25.2.0, SVG Export Plug-In . SVG Version: 6.00 Build 0)  -->
<svg version="1.1" id="Layer_1" xmlns="http://www.w3.org/2000/svg" xmlns:xlink="http://www.w3.org/1999/xlink" x="0px" y="0px"
	 viewBox="0 0 1255.30298 469.8688" style="enable-background:new 0 0 1255.30298 469.8688;" xml:space="preserve">
<style type="text/css">
	.st0{fill-rule:evenodd;clip-rule:evenodd;fill:#292929;}
	.st1{fill-rule:evenodd;clip-rule:evenodd;fill:#111111;}
	.st2{fill-rule:evenodd;clip-rule:evenodd;fill:#333333;}
	.st3{fill-rule:evenodd;clip-rule:evenodd;fill:#0A0A0A;}
	.st4{fill:#808080;}
	.st5{fill-rule:evenodd;clip-rule:evenodd;fill:#1A1A1A;}
	.st6{fill-rule:evenodd;clip-rule:evenodd;fill:#CBCBCB;}
	.st7{fill-rule:evenodd;clip-rule:evenodd;fill:#989898;}
	.st8{fill-rule:evenodd;clip-rule:evenodd;fill:#666666;}
	.st9{fill-rule:evenodd;clip-rule:evenodd;fill:#B2B2B2;}
	.st10{fill-rule:evenodd;clip-rule:evenodd;fill:#0C0C0C;}
	.st11{opacity:0.1;fill-rule:evenodd;clip-rule:evenodd;fill:#FFFFFF;}
	.st12{fill-rule:evenodd;clip-rule:evenodd;fill:#E5E5E5;}
	.st13{fill-rule:evenodd;clip-rule:evenodd;}
	.st14{fill-rule:evenodd;clip-rule:evenodd;fill:#FFFFFF;}
	.st15{fill:#515151;}
	.st16{fill-rule:evenodd;clip-rule:evenodd;fill:#1E1E1E;}
	.st17{fill-rule:evenodd;clip-rule:evenodd;fill:#808080;}
	.st18{fill:#333333;}
	.st19{fill:#1A1A1A;}
	.st20{fill:#292929;}
	.st21{fill-rule:evenodd;clip-rule:evenodd;fill:#DB0000;}
	.st22{fill-rule:evenodd;clip-rule:evenodd;fill:#FF6700;}
</style>
<g>
	<g>
		<path class="st0" d="M479.18781,469.8688h44.71661c37.96808,0,68.74963-47.48709,68.74963-106.06198
			c0-58.57681-30.78149-106.06189-68.74963-106.06189h-44.71661C437.83951,257.7449,436.48581,469.8688,479.18781,469.8688z"/>
		<path class="st1" d="M479.18781,469.8688c37.8681,0,68.75159-47.6456,68.75159-106.0639
			c0-58.41501-30.88348-106.06-68.75159-106.06c-37.8642,0-68.75092,47.64499-68.75092,106.06
			C410.43689,422.22318,441.32361,469.8688,479.18781,469.8688z"/>
		<path class="st1" d="M479.19171,437.9967c26.48709,0,48.08899-33.32959,48.08899-74.1918
			c0-40.8623-21.6019-74.19189-48.08899-74.19189c-26.491,0-48.0929,33.32959-48.0929,74.19189
			C431.09879,404.66708,452.70071,437.9967,479.19171,437.9967z"/>
		<path class="st2" d="M479.18781,427.4437c22.7207,0,41.25421-28.58649,41.25421-63.63879
			c0-35.04901-18.53351-63.63889-41.25421-63.63889c-22.72079,0-41.2496,28.5899-41.2496,63.63892
			C437.9382,398.85718,456.46701,427.4437,479.18781,427.4437z"/>
		<path class="st1" d="M487.16431,426.25058c18.96368-5.73169,33.2757-31.5083,33.2757-62.44382
			c0-30.93799-14.31201-56.71469-33.2757-62.44571c-18.96561,5.73099-33.2756,31.50769-33.2756,62.44571
			C453.8887,394.74228,468.1987,420.51889,487.16431,426.25058z"/>
	</g>
	<g>
		<path class="st0" d="M1068.31653,469.8688h44.71594c37.96875,0,68.74963-47.48709,68.74963-106.06198
			c0-58.57681-30.78088-106.06189-68.74963-106.06189h-44.71594C1026.96753,257.7449,1025.61389,469.8688,1068.31653,469.8688z"/>
		<path class="st1" d="M1068.31653,469.8688c37.86804,0,68.75146-47.6456,68.75146-106.0639
			c0-58.41501-30.88342-106.06-68.75146-106.06c-37.86426,0-68.75159,47.64499-68.75159,106.06
			C999.56488,422.22318,1030.45227,469.8688,1068.31653,469.8688z"/>
		<path class="st1" d="M1068.32043,437.9967c26.48694,0,48.08899-33.32959,48.08899-74.1918
			c0-40.8623-21.60205-74.19189-48.08899-74.19189c-26.49097,0-48.0929,33.32959-48.0929,74.19189
			C1020.22748,404.66708,1041.82935,437.9967,1068.32043,437.9967z"/>
		<path class="st2" d="M1068.31653,427.4437c22.7207,0,41.25354-28.58649,41.25354-63.63879
			c0-35.04901-18.53284-63.63889-41.25354-63.63889c-22.72083,0-41.25024,28.5899-41.25024,63.63892
			C1027.06616,398.85718,1045.5957,427.4437,1068.31653,427.4437z"/>
		<path class="st1" d="M1076.29297,426.25058c18.96375-5.73169,33.27576-31.5083,33.27576-62.44382
			c0-30.93799-14.31201-56.71469-33.27576-62.44571c-18.96558,5.73099-33.27576,31.50769-33.27576,62.44571
			C1043.01733,394.74228,1057.32739,420.51889,1076.29297,426.25058z"/>
	</g>
	<polygon class="st3" points="925.974,389.345 230.013,389.345 69.719,365.927 37.885,318.194 48.32,205.914 925.974,205.914 	"/>
	<rect x="851.70148" y="365.92679" class="st4" width="311.40631" height="23.41791"/>
	<g>
		<path class="st1" d="M748.04669,469.8688h44.74249c37.99243,0,68.79242-47.51541,68.79242-106.12772
			c0-58.61169-30.79999-106.12711-68.79242-106.12711h-44.74249C706.67151,257.61401,705.31781,469.8688,748.04669,469.8688z"/>
		<path class="st5" d="M748.0481,469.8688c37.89062,0,68.79248-47.6752,68.79248-106.12772
			c0-58.4519-30.90192-106.12711-68.79248-106.12711c-37.88989,0-68.79572,47.6752-68.79572,106.12711
			C679.25238,422.1936,710.1582,469.8688,748.0481,469.8688z"/>
		<g>
			<path class="st6" d="M748.0448,438.6459c26.6955,0,48.4693-33.5907,48.4693-74.76999
				c0-41.1832-21.7738-74.76999-48.4693-74.76999c-26.69623,0-48.46588,33.58679-48.46588,74.76999
				C699.57892,405.05518,721.34857,438.6459,748.0448,438.6459z"/>
			<path class="st7" d="M748.0448,428.01068c22.8996,0,41.57471-28.81021,41.57471-64.1348
				c0-35.32529-18.67511-64.1355-41.57471-64.1355c-22.89642,0-41.57129,28.81021-41.57129,64.1355
				C706.47351,399.2005,725.14838,428.01068,748.0448,428.01068z"/>
			<path class="st5" d="M756.08252,426.8064c19.11298-5.7764,33.53497-31.7543,33.53497-62.93051
				c0-31.1781-14.422-57.1561-33.53497-62.9324c-19.11298,5.77631-33.53479,31.7543-33.53479,62.9324
				C722.54773,395.05209,736.96948,421.03,756.08252,426.8064z"/>
			<path class="st8" d="M756.64948,426.6308c11.09692-3.6058,20.56329-14.03189,26.46808-28.31229
				c-2.71472-3.1138-4.26569-9.548-0.68219-19.12619c2.1944-5.8671,4.68732-8.56519,6.99933-9.30719
				c0.12097-1.97849,0.18195-3.98157,0.1828-6.00919c0-2.02917-0.06091-4.03357-0.1828-6.01321
				c-2.31403-0.74191-4.80688-3.444-6.99933-9.30591c-3.5874-9.59061-2.03052-16.01431,0.68219-19.12408
				c-5.90277-14.27979-15.37122-24.7085-26.46808-28.3143c-18.82422,6.11581-32.95538,31.88849-32.95538,62.75549
				c0,30.86841,14.13123,56.64111,32.95538,62.7569V426.6308z M765.24628,333.24039c-13.51019,0-11.60272-18.74591-7.03662-20.2522
				c4.56134-1.56839,9.51587-1.56839,14.07721,0C776.88055,314.5484,778.71906,333.24039,765.24628,333.24039z M748.05786,348.55679
				c-6.75378,18.06-16.3241,6.13821-14.88287-0.71759c1.29919-6.61502,3.67706-12.97147,7.03857-18.815
				C743.38715,323.6622,754.79395,330.55151,748.05786,348.55679z M748.05786,379.19229
				c6.75317,18.05801-4.71741,24.88739-7.8443,19.5307c-3.36133-5.84338-5.7392-12.19962-7.03857-18.81439
				C731.75421,372.9877,741.32117,361.185,748.05786,379.19229z M765.24628,394.5094c13.51019,0,11.60278,18.7453,7.03857,20.2522
				c-4.56158,1.56711-9.51562,1.56711-14.07721,0C753.612,413.20078,751.77362,394.5094,765.24628,394.5094z"/>
			<path class="st9" d="M753.59692,427.43781c11.86377-2.44421,22.14648-12.61111,28.65363-27.11319
				c-4.29773,1.4043-11.62311-5.8678-5.91382-21.13229c4.38129-11.71451,9.94342-10.81409,12.92102-6.86301
				c0.2348-2.76709,0.3598-5.5882,0.3598-8.4534c0-2.86581-0.125-5.68689-0.3598-8.4541
				c-2.97559,3.95111-8.54498,4.83121-12.92102-6.86499c-5.71521-15.28879,1.62531-22.52469,5.91193-21.13751
				c-6.50519-14.50211-16.7879-24.66571-28.65167-27.10791c-20.32257,4.18719-36.00153,31.04919-36.00153,63.5625
				c0,32.51471,15.67889,59.37671,36.00153,63.5639H753.59692z M759.14764,333.24042c-13.51019,0-11.60272-18.74591-7.03662-20.2522
				c4.56134-1.56839,9.51587-1.56839,14.07721,0C770.78204,314.54843,772.62042,333.24042,759.14764,333.24042z
				 M741.95862,348.55682c-6.75317,18.06-16.32349,6.13821-14.88232-0.71759c1.29889-6.61511,3.67676-12.97162,7.03857-18.815
				c3.17358-5.362,14.58038,1.52731,7.84369,19.53259H741.95862z M741.95862,379.19232
				c6.75378,18.05801-4.7168,24.88739-7.84369,19.5307c-3.36157-5.84326-5.7395-12.19952-7.03857-18.81439
				c-1.42078-6.9209,8.14618-18.7236,14.88232-0.71631H741.95862z M759.14764,394.50943
				c13.51031,0,11.60278,18.7453,7.03857,20.2522c-4.56158,1.56711-9.51562,1.56711-14.07721,0
				c-4.5957-1.56085-6.43408-20.25223,7.03857-20.25223L759.14764,394.50943z"/>
			<path class="st8" d="M759.53571,350.76819c-4.9502,0-8.96448,6.18811-8.96448,13.8233s4.01428,13.82529,8.96448,13.82529
				c4.9516,0,8.96582-6.19009,8.96582-13.82529S764.4873,350.76819,759.53571,350.76819z"/>
		</g>
	</g>
	<g>
		<path class="st1" d="M149.75571,469.8688H194.498c37.9931,0,68.79311-47.51541,68.79311-106.12772
			c0-58.61169-30.8-106.12711-68.79309-106.12711h-44.74231C108.3811,257.61401,107.0275,469.8688,149.75571,469.8688z"/>
		<path class="st5" d="M149.75771,469.8688c37.8905,0,68.7924-47.6752,68.7924-106.12772
			c0-58.4519-30.9019-106.12711-68.79239-106.12711c-37.8898,0-68.7956,47.6752-68.7956,106.12711
			C80.9621,422.1936,111.8679,469.8688,149.75771,469.8688z"/>
		<g>
			<path class="st6" d="M149.75439,438.6459c26.6956,0,48.46921-33.5907,48.46921-74.76999
				c0-41.1832-21.77361-74.76999-48.46921-74.76999c-26.6962,0-48.46581,33.58679-48.46581,74.76999
				C101.2886,405.05518,123.0582,438.6459,149.75439,438.6459z"/>
			<path class="st7" d="M149.75439,428.01068c22.8997,0,41.5746-28.81021,41.5746-64.1348
				c0-35.32529-18.6749-64.1355-41.5746-64.1355c-22.8963,0-41.5712,28.81021-41.5712,64.1355
				C108.1832,399.2005,126.8581,428.01068,149.75439,428.01068z"/>
			<path class="st5" d="M157.79221,426.8064c19.1129-5.7764,33.53481-31.7543,33.53481-62.93051
				c0-31.1781-14.42191-57.1561-33.53481-62.9324c-19.11301,5.77631-33.5349,31.7543-33.5349,62.9324
				C124.2573,395.05209,138.6792,421.03,157.79221,426.8064z"/>
			<path class="st8" d="M158.35851,426.6308c11.09959-3.6058,20.564-14.03189,26.4686-28.31229
				c-2.71449-3.1138-4.2662-9.548-0.6821-19.12619c2.19431-5.8671,4.68719-8.56519,6.99921-9.30719
				c0.121-1.97849,0.18195-3.98157,0.1828-6.00919c0-2.02917-0.06094-4.03357-0.1828-6.01321
				c-2.314-0.74191-4.8069-3.444-6.99921-9.30591c-3.5874-9.59061-2.0305-16.01431,0.6821-19.12408
				c-5.90269-14.27979-15.369-24.7085-26.4686-28.3143c-18.82359,6.11581-32.9547,31.88849-32.9547,62.75549
				c0,30.86841,14.1311,56.64111,32.9547,62.7569V426.6308z M166.95601,333.24039c-13.5103,0-11.6028-18.74591-7.0367-20.2522
				c4.56137-1.56839,9.51593-1.56839,14.0773,0C178.59032,314.5484,180.42871,333.24039,166.95601,333.24039z M149.76691,348.55679
				c-6.7531,18.06-16.32339,6.13821-14.88229-0.71759c1.29892-6.61511,3.67685-12.97159,7.0386-18.815
				c3.17371-5.362,14.5804,1.52731,7.8437,19.53259H149.76691z M149.76691,379.19229
				c6.7538,18.05801-4.71671,24.88739-7.8437,19.5307c-3.36156-5.84329-5.73947-12.19952-7.0386-18.81439
				c-1.4207-6.9209,8.1463-18.7236,14.88229-0.71631H149.76691z M166.95601,394.5094c13.51019,0,11.60471,18.7453,7.0386,20.2522
				c-4.56155,1.56711-9.51564,1.56711-14.07719,0c-4.59583-1.56082-6.43422-20.2522,7.03857-20.2522H166.95601z"/>
			<path class="st9" d="M155.3065,427.43781c11.86591-2.44421,22.1465-12.61111,28.6537-27.11319
				c-4.29781,1.4043-11.6232-5.8678-5.91389-21.13229c4.3813-11.71451,9.9433-10.81409,12.9209-6.86301
				c0.23679-2.76709,0.35672-5.58493,0.3598-8.4534c0-2.86581-0.11993-5.68387-0.3598-8.4541
				c-2.9756,3.95111-8.5455,4.83121-12.9209-6.86499c-5.71519-15.28879,1.62531-22.52469,5.9119-21.13751
				c-6.5052-14.50211-16.7858-24.66571-28.6517-27.10791c-20.3226,4.18719-36.0014,31.04919-36.0014,63.5625
				C119.3051,396.38861,134.9839,423.25061,155.3065,427.43781z M160.8573,333.24042c-13.51019,0-11.6028-18.74591-7.03661-20.2522
				c4.56134-1.56839,9.51585-1.56839,14.07719,0c4.5937,1.56021,6.4321,20.2522-7.0406,20.2522H160.8573z M143.6682,348.55682
				c-6.7531,18.06-16.3234,6.13821-14.88229-0.71759c1.29897-6.61511,3.6769-12.97156,7.0386-18.815
				c3.17371-5.362,14.5804,1.52731,7.8437,19.53259H143.6682z M143.6682,379.19232c6.7532,18.05801-4.71671,24.88739-7.8437,19.5307
				c-3.36151-5.84332-5.73943-12.19955-7.0386-18.81439c-1.4207-6.9209,8.1463-18.7236,14.88229-0.71631H143.6682z
				 M160.8573,394.50943c13.51019,0,11.60471,18.7453,7.0386,20.2522c-4.56155,1.56711-9.51564,1.56711-14.07719,0
				c-4.5957-1.56085-6.4342-20.25223,7.03859-20.25223V394.50943z"/>
			<path class="st8" d="M161.24541,350.76819c-4.9503,0-8.96449,6.18811-8.96449,13.8233s4.01421,13.82529,8.96451,13.82529
				c4.95151,0,8.96581-6.19009,8.96581-13.82529S166.1969,350.76819,161.24541,350.76819z"/>
		</g>
	</g>
	<path class="st1" d="M1156.54285,139.2988c-43.34058-9.07629-109.68811-15.1434-168.07349-18.7098
		c-45.93549-38.7633-91.41248-72.3836-144.11761-98.5984c-39.8913-19.8404-95.44922-19.6385-153.5603-20.8507
		C597.25702-0.80841,501.4968-0.42621,404.0455,3.592c-20.0321,0.69723-39.88953,3.98615-59.07669,9.7847
		c-8.0892,2.39879-14.83398,8.02216-18.64859,15.548C309.17059,63.873,297.4613,99.65409,287.7193,137.64l-247.5399,0.2065
		c-6.119,0.00391-10.4484,3.125-12.3262,7.6871l-10.8937,26.4838c-6.1678,43.0137-11.1332,90.86981-6.3414,127.79599l9.5571,66.1153
		h49.853c-12.9524-54.0744,11.5824-130.7684,83.4379-132.0457c63.99539-1.1353,94.5098,73.43471,86.7661,132.0457h427.41351
		c-0.75513-5.93491-5.12189-20.2337-2.89539-45.867c3.47552-39.96899,40.59711-86.5589,82.67877-86.5589
		c50.14789,0,109.77972,55.3584,109.77972,121.5184c0,3.67691-0.12604,7.31271-0.37817,10.9075h378.17938
		c7.24915,0,10.7135-6.91949,10.78784-13.86081l0.90637-82.8847c-0.71228-7.38129-2.28955-13.5918-10.55176-15.72681
		l-5.65662-67.5282c-10.65564-17.9678-20.82837-14.3009-28.64246-23.8712c-2.94629-3.62318-6.13892-7.03886-9.55518-10.2227
		C1186.56653,146.5275,1165.77563,141.23259,1156.54285,139.2988z"/>
	<path class="st5" d="M301.6301,89.82659c-5.18109,15.6039-9.72879,31.5064-13.9108,47.81339l-6.72549,0.0052
		c-0.60135,1.94655-1.069,3.9319-1.39969,5.9422c-0.03891,3.32199,2.62253,6.04655,5.94452,6.08548
		c0.00031,0.00002,0.00058,0.00002,0.00089,0.00002c6.85049,0.1026,451.34781,0.24271,458.40482,0.4196
		c44.22809,1.1097,91.90729,1.7325,134.13757,6.1158c14.32849,1.4859,28.01239,3.173,40.68933,5.0733
		c25.83252,3.8689,118.83154,10.8062,28.35901-7.31821c-19.5083-3.9084-42.72168-7.13921-67.82288-9.7439
		c-42.8446-4.44321-91.38483-5.08839-136.35492-6.1882c-4.78247-0.11571-234.2565-0.2184-366.28189-0.3006
		C332.30899,137.70509,308.81079,100.88469,301.6301,89.82659z"/>
	<path class="st10" d="M16.7431,173.52759c-6.0671,42.62039-10.8608,89.79041-6.125,126.2858l9.5571,66.1153h49.853
		c-12.9524-54.0744,11.5824-130.7684,83.4379-132.0457c63.99539-1.1353,94.5098,73.43471,86.7661,132.0457h427.41351
		c-0.75513-5.93491-5.12189-20.2337-2.89539-45.867c3.47552-39.96899,40.59711-86.5589,82.67877-86.5589
		c50.14789,0,109.77972,55.3584,109.77972,121.5184c0,3.67691-0.12604,7.31271-0.37817,10.9075h64.56567l7.26019-58.71689
		L949.56317,205.224c-37.98389-27.09149-124.23499-31.6964-192.06592-31.6964L16.7431,173.52759z"/>
	<path class="st1" d="M370.6691,25.45829l131.41702-2.1101c32.86731,0.861,71.82587,2.4607,87.61792,19.0827
		c21.29797,21.8091,43.19861,43.0065,59.83771,68.7516c8.1496,12.6111,2.33441,26.46471-13.14838,26.46471H374.50061
		c-17.12921,0-38.39569-13.236-48.21069-23.0529c-2.552-2.5521-3.84979-5.1535-2.46259-9.5072l20.57651-64.6452
		C348.17731,28.58329,354.52591,25.71749,370.6691,25.45829z"/>
	<path class="st1" d="M988.4679,120.58709c-45.15472-38.10101-89.86871-71.2386-141.4444-97.256H618.263
		c-3.53351,0-4.49377,2.2897-2.60339,4.4135l79.15192,88.9065c2.42365,2.52868,5.77905,3.95158,9.28162,3.936H988.4679z"/>
	<path class="st11" d="M979.59808,115.40919H704.09113c-2.02356,0.00906-3.96857-0.78254-5.41071-2.2021L623.2724,28.509h230.04712
		c45.7066,23.9402,86.67468,53.981,126.27863,86.9002L979.59808,115.40919z M502.0618,28.52539l-13.74899,0.2223
		c-9.0401,34.12995-16.05585,68.76419-21.01059,103.7217H636.3913c11.52972,0,14.60999-9.4881,8.80011-18.4789
		c-16.38531-25.3538-38.36938-46.3703-59.21222-67.9663C570.25946,29.73759,524.44116,29.10949,502.0618,28.52539z
		 M431.5481,132.46939h-57.04749c-14.54691,0-34.51761-11.5002-44.55029-21.5349c-1.4957-1.495-1.8515-2.2001-1.18991-4.2793
		l20.57651-64.6419c3.54459-11.1384,10.5925-11.2055,21.41379-11.3791l88.9071-1.4261
		C448.43015,63.09569,439.04648,97.56662,431.5481,132.46939z"/>
	<path class="st5" d="M979.59808,115.40919H704.09113c-2.02356,0.00906-3.96857-0.78254-5.41071-2.2021l-35.02863-39.3409
		c18.15466-0.7774,36.56409-1.17007,55.22821-1.178c84.85547,0,165.03821,8.243,236.16821,22.8734
		c8.26007,6.47749,16.4433,13.09337,24.54993,19.8476L979.59808,115.40919z M627.30713,90.043
		c6.45734,7.59985,12.43054,15.59813,17.88428,23.9475c5.80988,8.9908,2.72961,18.4789-8.80011,18.4789H467.30219
		c2.28171-16.2248,5.03244-32.4211,8.2522-48.5889c8.00607-0.14733,16.05569-0.2256,24.14871-0.2348
		c42.61551-0.02774,85.20493,2.10745,127.60397,6.3973L627.30713,90.043z M443.01672,84.8948
		c-38.17731,1.6746-75.14429,5.0232-110.46759,9.8617l-3.7887,11.8987c-0.66159,2.0792-0.30579,2.7843,1.18991,4.2793
		c10.03268,10.0347,30.00339,21.5349,44.55029,21.5349h57.04752c3.42743-15.6993,7.23984-31.6366,11.46854-47.5746
		L443.01672,84.8948z"/>
	<path class="st3" d="M287.71741,137.64l-8.75339,0.0072c-6.76501,38.80211-10.85159,77.24971-11.2081,115.18629
		c-0.35391,37.78589,2.9967,76.61041,11.0943,113.09329h8.8172c-8.2561-36.38559-11.67191-75.24759-11.31799-113.02429
		C276.70789,215.11139,280.85629,176.619,287.71741,137.64z"/>
	<path class="st12" d="M1235.91968,250.65239c4.61475,0,1.23462-54.9283-4.60364-54.9283
		c-5.4574,0.8781-9.74402,6.1546-9.24011,10.97861l3.77551,35.89481c0.48279,4.6109,3.17688,8.1647,7.43921,8.09959
		L1235.91968,250.65239z"/>
	<path class="st13" d="M666.70782,365.92868h0.93793c-0.75513-5.93491-3.40448-20.2226-1.17078-45.867
		c3.4848-39.9762,38.8725-84.83231,80.95422-84.83231c31.95032,0,60.05762,21.77161,76.23041,54.6835
		c2.77643,5.64749,7.06818,10.28268,11.93622,10.28268l15.14148-0.3335c6.53149,0,6.16449-7.15961,5.16272-10.0202
		c-18.66498-53.29831-59.56873-90.2693-106.99738-90.2693c-54.60931,0-100.04352,58.0638-98.10248,110.08339
		C651.8985,339.10559,663.31049,356.85968,666.70782,365.92868z"/>
	<path class="st13" d="M69.7191,365.92868h0.3091c-0.7551-5.93491-3.4045-20.2226-1.1707-45.867
		c3.4827-39.9762,38.8731-84.83231,80.95421-84.83231c50.14569,0,90.79739,53.63181,90.79739,119.79181
		c-0.00002,3.67691-0.12564,7.31271-0.37691,10.9075c10.66881-17.7001,18.054-39.59671,21.87819-66.04819
		c-16.8661-58.63071-59.8443-100.30789-110.1992-100.30789c-54.6053,0-100.0395,58.06381-98.1005,110.0834
		C54.9092,339.10559,66.3218,356.85968,69.7191,365.92868z"/>
	<path class="st5" d="M457.68451,163.07849h34.6853c2.91757,0.00851,5.28027,2.37215,5.28769,5.2897l0,0
		c-0.00812,2.91725-2.37045,5.28041-5.28769,5.2896h-34.6853c-2.91742-0.00873-5.27997-2.37218-5.2876-5.2896l0,0
		C452.40381,165.45045,454.76678,163.08656,457.68451,163.07849z"/>
	<path class="st5" d="M306.1272,163.07849h34.68521c2.9173,0.00862,5.2796,2.37239,5.28641,5.2897l0,0
		c-0.00751,2.91701-2.36942,5.28032-5.28641,5.2896H306.1272c-2.91742-0.00871-5.28003-2.37216-5.28769-5.2896l0,0
		C300.84647,165.45044,303.20944,163.08656,306.1272,163.07849z"/>
	<path class="st0" d="M1244.68286,365.92679H849.46051c-5.84149,0-9.73279-4.84631-10.62073-10.6188l-6.90179-44.8765
		c-0.888-5.7724,4.78778-10.6181,10.62-10.6181h402.12488c5.8551,0.02261,10.59644,4.76297,10.62012,10.6181v6.5802h-5.94934
		v31.7168h5.94934v6.5795C1255.28418,361.16531,1250.54016,365.90875,1244.68286,365.92679z"/>
	<path class="st5" d="M1250.84155,317.01169v31.7168h-17.00623c-2.2135-0.00601-4.00635-1.79886-4.01233-4.0123v-23.6922
		c0.00781-2.21268,1.79968-4.00446,4.01233-4.0123H1250.84155z"/>
	<path class="st1" d="M585.80548,87.237h20.55408c26.539,0,51.2962,45.01401,29.23187,45.01401h-49.78601
		c-8.75427-0.02562-15.8446-7.11603-15.87018-15.8703v-13.2695C569.96515,94.35809,577.05237,87.26908,585.80548,87.237z"/>
	<path class="st13" d="M577.18958,95.85429h0.00201c4.00037,0.01784,7.23877,3.25653,7.25629,7.2569v17.0299
		c0,3.2763,1.96741,5.0344,5.11072,5.0344h34.58069c6.63611,0,6.65118,7.07549,0,7.07549H585.8075
		c-9.61902,0-15.87219-7.2846-15.87219-16.3498v-12.79C569.94611,99.1088,573.18719,95.86651,577.18958,95.85429z"/>
	<polygon class="st3" points="262.10999,299.81299 650.98297,299.81299 667.646,365.92899 240.23199,365.92899 	"/>
	<polygon class="st13" points="663.08197,347.82199 667.646,365.92899 240.23199,365.92899 246.22301,347.82199 	"/>
	<polygon class="st1" points="262.10999,299.81299 650.98297,299.81299 656.93402,323.43301 254.293,323.43301 	"/>
	<path class="st2" d="M997.341,179.80519h193.49176c8.56824,0.21947,15.70398,6.63879,16.82532,15.1362l8.44946,75.7599
		c1.00708,7.28516-4.08215,14.00742-11.36731,15.01456c-0.68945,0.09531-1.38525,0.13641-2.08105,0.12296h-220.9931
		c-10.54773,0-18.42493-7.6384-16.02551-19.4201l14.56201-71.47729C981.87268,186.73389,989.01581,179.80519,997.341,179.80519z"/>
	<path class="st5" d="M997.341,179.80519h179.71637c8.56824,0.21947,15.70398,6.63879,16.82532,15.1362l8.44824,75.7599
		c1.00818,7.28394-4.07922,14.00607-11.36316,15.01428c-0.69043,0.09555-1.38721,0.13675-2.08398,0.12323H981.66608
		c-10.54773,0-18.42493-7.6384-16.02551-19.4201l14.56201-71.47729C981.87268,186.73389,989.01581,179.80519,997.341,179.80519z"/>
	<path class="st14" d="M941.79779,195.59718l-92.54651-0.73801c-8.16272-0.0652-8.258,5.681-4.80292,9.58929l33.89069,38.30229
		c2.69623,3.04601,7.84241,7.1649,12.0954,7.23199l43.97931,0.71429c4.255,0.06509,7.3952-3.48869,8.45538-8.09959l8.27649-35.89479
		C952.35602,201.4446,947.93719,195.6478,941.79779,195.59718z"/>
	<rect x="968.07037" y="217.8187" class="st15" width="251.68634" height="30.00861"/>
	<path class="st6" d="M1155.16077,389.3447H929.69513l52.85309-34.83261c6.7005-4.4451,12.3631-5.7836,20.37518-5.7836h206.92694
		c8.07715,0,10.5083,10.8924,3.28882,14.44031l-38.70081,19.02551C1167.73315,386.63739,1159.60986,389.3447,1155.16077,389.3447z"
		/>
	<polygon class="st16" points="1124.34998,220.60001 1096.44104,220.60001 1084.68103,225.461 1084.68103,238.127 
		1110.39404,243.871 1122.65698,243.873 	"/>
	<path class="st9" d="M1165.57776,389.3447H943.14948l42.84991-28.4747c6.7005-4.4451,12.3631-5.7836,16.80621-5.7836h210.10992
		c4.44495,0,6.92871,3.6373,0.22363,8.08041l-27.28687,18.09549C1179.14966,385.70538,1170.02869,389.3447,1165.57776,389.3447z"/>
	<polygon class="st6" points="1146.25403,225.463 1134.49695,220.604 1106.58203,220.604 1094.82605,225.463 1094.82605,238.129 
		1120.53894,243.873 1146.25403,238.129 	"/>
	<path class="st17" d="M1164.28979,367.12909l-15.92676,10.17279c-6.06519,3.87219-29.44434,7.9075-17.06543,0l15.92615-10.17279
		C1153.27576,363.26419,1176.68323,359.21439,1164.28979,367.12909z M1105.64722,367.12909l-15.92615,10.17279
		c-6.06506,3.87219-29.44421,7.9075-17.06396,0l15.92676-10.17279C1094.63391,363.26419,1118.04065,359.21439,1105.64722,367.12909z
		 M1047.00537,367.12909l-15.92615,10.17279c-6.06384,3.87219-29.44232,7.9075-17.06409,0l15.92615-10.17279
		c6.05066-3.8649,29.45935-7.9147,17.06396,0H1047.00537z"/>
	<path class="st18" d="M1011.96539,317.01169h184.94159c3.69373,0,6.68811,2.99435,6.68811,6.68808c0,0.00003,0,0.00003,0,0.00003
		v18.33871c0,3.69476-2.99512,6.68997-6.68994,6.69h-184.93896c-3.69476,0-6.69-2.99521-6.69-6.69l0,0v-18.33752
		C1005.27618,320.00662,1008.27106,317.01175,1011.96539,317.01169z"/>
	<path class="st19" d="M1011.96539,317.01169h173.97284c3.69373,0,6.68811,2.99435,6.68811,6.68808c0,0.00003,0,0.00003,0,0.00003
		v18.33871c0,3.69476-2.99512,6.68997-6.68994,6.69h-173.97028c-3.69476,0-6.69-2.99521-6.69-6.69l0,0v-18.33752
		C1005.27612,320.00659,1008.271,317.01172,1011.96539,317.01169z"/>
	<path class="st18" d="M890.86859,317.01169h56.63647c3.69336,0,6.68738,2.99408,6.68738,6.68741v18.33939
		c0,3.69479-2.99524,6.69-6.69,6.69l0,0h-56.63507c-3.69373,0-6.68811-2.99435-6.68811-6.68808c0-0.00003,0-0.00003,0-0.00003
		v-18.33939c0-3.6944,2.99487-6.6893,6.68927-6.6893C890.86859,317.01169,890.86859,317.01169,890.86859,317.01169z"/>
	<path class="st19" d="M890.86859,317.01169h45.66779c3.69336,0,6.68738,2.99408,6.68738,6.68741v18.33939
		c0,3.69479-2.99524,6.69-6.69,6.69l0,0h-45.66644c-3.69366,0-6.68799-2.99432-6.68799-6.68799v-18.33951
		C884.17932,320.00659,887.17419,317.01172,890.86859,317.01169z"/>
	<path class="st20" d="M281.65811,365.92679h311.77872c3.52911,0,6.39001,2.8609,6.39001,6.38998v0.00003v0.0014
		c0,3.52878-2.86066,6.3894-6.3894,6.3894l0,0H281.65811c-3.52911,0-6.39001-2.8609-6.39001-6.38998v-0.00003v-0.00079
		c0-3.52911,2.8609-6.39001,6.38998-6.39001H281.65811z"/>
	<path class="st5" d="M635.26129,365.92679h-39.1225c-3.52545,0.009-6.38159,2.86395-6.39203,6.3894l0,0
		c0.02216,3.5209,2.87115,6.36957,6.39203,6.39139h32.72913c3.52026-0.02228,6.36823-2.87109,6.3894-6.39139L635.26129,365.92679z"
		/>
	<path class="st0" d="M32.6844,365.92868H14.1568C8.0713,365.92868,0,350.04269,0,347.82208v-28.76349
		c0-5.0094,5.6284-19.24521,10.62-19.24521h9.2869c4.65224,5.22339,7.73737,11.65271,8.9013,18.54999l9.5743,32.87839
		C38.12482,356.62552,36.1251,361.77985,32.6844,365.92868z"/>
	<polygon class="st21" points="16.96,172.017 23.563,172.017 27.714,178.12 22.94,219.31 10.577,226.19 6.384,218.75301 
		11.483,177.29201 	"/>
	<path class="st14" d="M922.91571,324.11539c4.88342,0.00073,8.84161,3.96008,8.84088,8.84351s-3.96008,8.84161-8.84351,8.84088
		c-4.88263-0.0007-8.84058-3.95892-8.84088-8.84158c-0.0011-4.88266,3.95618-8.84171,8.83887-8.8428
		C922.9126,324.11539,922.91418,324.11539,922.91571,324.11539z"/>
	<path class="st22" d="M898.80969,324.11539c4.88342,0.00073,8.84161,3.96008,8.84088,8.84351s-3.96008,8.84161-8.84351,8.84088
		c-4.88263-0.0007-8.84058-3.95892-8.84088-8.84158c-0.0011-4.88266,3.95618-8.84171,8.83887-8.8428
		C898.80658,324.11539,898.80817,324.11539,898.80969,324.11539z"/>
	<path class="st6" d="M1244.36975,324.11539c3.11707,0,5.64355,3.95639,5.64355,8.8428c0,4.88519-2.52649,8.84161-5.64355,8.84161
		c-3.11975,0-5.64612-3.95639-5.64612-8.84161C1238.72375,328.07178,1241.25012,324.11539,1244.36975,324.11539z"/>
</g>
</svg>
