<svg xmlns="http://www.w3.org/2000/svg" width="58.34435" height="55.75561" viewBox="0 0 58.34435 55.75561">
  <path d="M54.36673,23.90009h-40.811L30.609,6.78507a3.97761,3.97761,0,1,0-5.63509-5.61528L1.15988,25.07007c-.03137.03146-.0522.0689-.0823.10114a3.98986,3.98986,0,0,0-.40563.49628l-.01626.02214c-.06439.09755-.10668.20393-.1616.30551a3.9246,3.9246,0,0,0-.18844.35678l-.014.02962c-.04724.11653-.07123.23884-.107.35853l-.01015.034c-.03117.1074-.07351.20975-.09565.32065l-.00553.02355c-.02423.12513-.02486.25234-.037.37883-.01209.126-.036.25112-.03608.37761L0,27.87771l.00029.00306c.0001.12677.024.252.03613.37824s.01277.25326.037.37815L.079,28.6608c.022.11027.06414.21194.09507.31872l.01238.04156c.03535.11765.05871.23792.10517.35251.00413.0102.00986.01971.01408.02991a3.91936,3.91936,0,0,0,.18961.35887c.05453.1008.09648.20636.16033.30308l.01626.02219a3.97957,3.97957,0,0,0,.41646.50939c.02632.028.04428.06054.07157.08793l23.814,23.90067A3.97761,3.97761,0,1,0,30.609,48.97035L13.55566,31.85494H54.36673a3.97743,3.97743,0,1,0,0-7.95485Z"/>
</svg>
