<svg xmlns="http://www.w3.org/2000/svg" width="6.39964" height="66.74528" viewBox="0 0 6.39964 66.74528">
  <path d="M5.27812,3.41348A8.24381,8.24381,0,0,0,4.32305.66276C4.14357.37219,3.95332.6238,3.76888.51219,3.65431.44287,3.54115-.01808,3.428.00055c-.15764.026-.31779.22387-.4713.548-.31621.66769-.62887,1.46309-.94266,2.21667-.0763.18324-.12074.11742-.13171-.71677a7.40451,7.40451,0,0,0-.09776-.85435c-.05263,1.07208-.21076,1.52254-.221,2.85817-.00179.232-.033.659-.03755.64622-.11931-.33908-.13486.50557-.1352,1.06931A9.95084,9.95084,0,0,1,1.249,7.68641c-.09757.5289-.19661,1.04016-.29767,1.51657a18.7167,18.7167,0,0,0-.33527,2.23937c-.08353.87-.138,2.02528-.19759,3.0209a11.20273,11.20273,0,0,1-.12976,1.29224C.22328,16.33063.22664,17.18.20305,17.91633.147,19.66367.09818,21.43282.05925,23.214c-.03071,1.40583-.07284,2.87342-.055,4.26013C.07094,32.6567.32152,37.76711.51,42.68278c.08763,2.286.14846,5.54429.33053,7.4243A29.44643,29.44643,0,0,0,1.194,53.495c.01294.04217.01884.23512.02926.34934.13132,1.43911.25334,2.95366.39684,4.29434.16571,1.54838.34982,2.94853.52714,4.40191A12.25135,12.25135,0,0,0,2.356,64.06619a3.85645,3.85645,0,0,1,.14914,1.06217c.14664,2.08154.94817,1.6648,1.19089,1.37744.59232-.70132.69666-4.99616,1.17185-6.836C6.01615,55.224,6.2336,44.66937,6.35756,34.90929c.02651-2.08637.02937-4.19555.042-6.29493.00072-.11727-.00532-.23714-.00779-.35646-.01171-.56359-.02718-1.12388-.03394-1.692-.01009-.84794-.00659-1.71162-.02185-2.55077-.054-2.96933-.13855-5.9587-.15306-8.96851q-.001-.20238-.00316-.40708A74.4204,74.4204,0,0,0,5.27812,3.41348Z" fill="#ef3924"/>
</svg>
