<?xml version="1.0" encoding="utf-8"?>
<!-- Generator: Adobe Illustrator 26.1.0, SVG Export Plug-In . SVG Version: 6.00 Build 0)  -->
<svg version="1.1" id="Layer_1" xmlns="http://www.w3.org/2000/svg" xmlns:xlink="http://www.w3.org/1999/xlink" x="0px" y="0px"
	 viewBox="0 0 6.4 66.7" style="enable-background:new 0 0 6.4 66.7;" xml:space="preserve">
<style type="text/css">
	.st0{fill:#FFFFFF;}
</style>
<path class="st0" d="M5.3,3.4c-0.2-1-0.5-1.9-1-2.8C4.1,0.4,4,0.6,3.8,0.5C3.7,0.4,3.5,0,3.4,0C3.3,0,3.1,0.2,3,0.5
	C2.6,1.2,2.3,2,2,2.8C1.9,2.9,1.9,2.9,1.9,2c0-0.3,0-0.6-0.1-0.9c-0.1,1.2-0.2,1.6-0.2,3c0,0.2,0,0.7,0,0.6C1.4,4.4,1.4,5.2,1.4,5.8
	s0,1.3-0.1,1.9C1.2,8.2,1.1,8.7,1,9.2c-0.2,0.7-0.3,1.5-0.3,2.2c-0.1,0.9-0.1,2-0.2,3c0,0.4-0.1,0.9-0.1,1.3
	c-0.1,0.6-0.1,1.4-0.1,2.2c-0.1,1.7-0.1,3.5-0.1,5.3C0,24.6,0,26.1,0,27.5c0.1,5.2,0.3,10.3,0.5,15.2c0.1,2.3,0.1,5.5,0.3,7.4
	c0.1,1.1,0.2,2.3,0.4,3.4c0,0,0,0.2,0,0.3c0.1,1.4,0.3,3,0.4,4.3c0.2,1.5,0.3,2.9,0.5,4.4c0,0.5,0.1,1,0.2,1.5
	c0.1,0.3,0.1,0.7,0.1,1.1c0.1,2.1,0.9,1.7,1.2,1.4c0.6-0.7,0.7-5,1.2-6.8c1.1-4.4,1.4-15,1.5-24.8c0-2.1,0-4.2,0-6.3
	c0-0.1,0-0.2,0-0.4c0-0.6,0-1.1,0-1.7c0-0.8,0-1.7,0-2.6c-0.1-3-0.1-6-0.2-9c0-0.1,0-0.3,0-0.4C6.2,10.9,5.9,7.1,5.3,3.4z"/>
</svg>
