<svg xmlns="http://www.w3.org/2000/svg" width="11.30238" height="22.8499" viewBox="0 0 11.30238 22.8499">
  <g style="isolation: isolate">
    <g>
      <path d="M1.45723,2.59782h0a.38015.38015,0,0,1,.379.379V4.843a.38011.38011,0,0,1-.379.379h0a.38.38,0,0,1-.379-.379V2.97682A.38008.38008,0,0,1,1.45723,2.59782Z" fill="#1e1e1e"/>
      <path d="M9.837,2.79463h0a.38015.38015,0,0,1,.379.379V5.0398a.38011.38011,0,0,1-.379.379h0a.38.38,0,0,1-.379-.379V3.17363A.38008.38008,0,0,1,9.837,2.79463Z" fill="#1e1e1e"/>
      <path d="M1.33483,18.1462h0a.38018.38018,0,0,1,.379.379v1.8662a.38011.38011,0,0,1-.379.379h0a.38.38,0,0,1-.379-.379V18.5252A.38011.38011,0,0,1,1.33483,18.1462Z" fill="#1e1e1e"/>
      <path d="M9.92663,18.343h0a.38011.38011,0,0,1,.379.379v1.8662a.38.38,0,0,1-.379.379h0a.38011.38011,0,0,1-.379-.379V18.722A.38018.38018,0,0,1,9.92663,18.343Z" fill="#1e1e1e"/>
      <path d="M1.295,20.6419v-18.93A1.74385,1.74385,0,0,1,1.81343.46555a1.647,1.647,0,0,1,.5225-.34526A1.59283,1.59283,0,0,1,2.94323,0h5.3317a1.61259,1.61259,0,0,1,1.0954.43281,1.80876,1.80876,0,0,1,.4318.61114,1.8683,1.8683,0,0,1,.1528.74086v18.715a1.74682,1.74682,0,0,1-.4829,1.2107l-.6144.6379a1.618,1.618,0,0,1-1.1654.5015h-4.231a1.61493,1.61493,0,0,1-1.1183-.4541l-.5178-.4959A1.74506,1.74506,0,0,1,1.295,20.6419Z" fill="#fbfdfd"/>
      <path d="M8.61833,4.9107,7.955,6.8063l-.6581-.129a10.8894,10.8894,0,0,0-1.2981-.1336q-.3369-.01335-.6748-.0069a10.74691,10.74691,0,0,0-1.1901.0903q-.1692.02235-.3374.0502l-.6581.129L2.475,4.9107l.0139-.004.3302-.0854a10.79266,10.79266,0,0,1,2.9627-.345c.0301.0005.0598.0015.0899.0025a10.76631,10.76631,0,0,1,2.3179.3236Z" opacity="0.7"/>
      <path d="M1.295,6.514V1.71191A1.74389,1.74389,0,0,1,1.81343.4655,1.64635,1.64635,0,0,1,2.336.12032,1.59,1.59,0,0,1,2.94333,0h5.3316a1.61312,1.61312,0,0,1,1.0954.43269,1.81293,1.81293,0,0,1,.4318.61135,1.869,1.869,0,0,1,.1527.74081v4.618a3.805,3.805,0,0,0-1.8864-1.4567A7.03515,7.03515,0,0,0,5.065,4.655a6.6239,6.6239,0,0,0-2.2223.5026A3.36448,3.36448,0,0,0,1.295,6.514Z"/>
      <path d="M1.75493,17.8739l.8189-2.3401.8124.1593a13.42171,13.42171,0,0,0,1.6024.1648q.4158.01665.833.0086a13.27862,13.27862,0,0,0,1.469-.1115c.1393-.0184.2779-.0392.4166-.0619l.8124-.1593.8189,2.3401-.0171.0049-.4077.1054a13.32154,13.32154,0,0,1-3.6573.4259c-.0372-.0007-.0737-.0019-.1109-.0031a13.28248,13.28248,0,0,1-2.8614-.3995Z" opacity="0.7"/>
      <path d="M1.295,20.642V16.2003c.3476.3962.529.9656.9649,1.2579a2.71871,2.71871,0,0,0,1.8267.1167,14.79979,14.79979,0,0,1,2.4037.0735,4.9528,4.9528,0,0,0,2.3657-.316,2.569,2.569,0,0,0,1.0988-.9571v4.1245a1.74692,1.74692,0,0,1-.4827,1.2106l-.6144.6381a1.61856,1.61856,0,0,1-1.1655.5013H3.46113a1.61479,1.61479,0,0,1-1.1181-.4539L1.82513,21.9A1.74563,1.74563,0,0,1,1.295,20.642Z"/>
      <path d="M8.45033,10.888l.9424.0269.1346,5.3445.0088.331c-.3-.7211-.576-1.2762-.81-2.0054-.2576-.8025-.3905-1.3056-.5852-2.127-.0812-.3442-.0051-1.2332-.0461-1.58Z" opacity="0.7"/>
      <path d="M8.08243,10.0721q.00225-.2808.0159-.5617a6.97922,6.97922,0,0,1,.9614-3.4723,2.597,2.597,0,0,1,.2646-.3256l.0489,4.2041-.873.1056Z" opacity="0.7"/>
      <path d="M2.754,10.888l-.9423.0269-.1346,5.3445-.0088.331c.3-.7211.576-1.2762.81-2.0054.2576-.8025.3905-1.3056.5852-2.127.0812-.3442.0051-1.2332.0461-1.58Z" opacity="0.7"/>
      <path d="M3.122,10.0721q-.00225-.2808-.0159-.5617a6.97922,6.97922,0,0,0-.9614-3.4723,2.597,2.597,0,0,0-.2646-.3256l-.0489,4.2041.873.1056Z" opacity="0.7"/>
      <path d="M5.54674,13.07652v-1.5417H8.58056a.68082.68082,0,0,1,.13536.0133c.19746.0396.34152.1639.34152.3113v.8925c0,.1792-.21318.3246-.47688.3246Z" fill="#2b7ccc"/>
      <path d="M2.00694,12.75192v-.8925c0-.1792.21494-.3246.48082-.3246h3.059v1.5417h-3.059a.53056.53056,0,0,1-.43513-.1866A.23851.23851,0,0,1,2.00694,12.75192Z" fill="#c73333"/>
      <g opacity="0.35" style="mix-blend-mode: multiply">
        <path d="M2.00693,12.7519v-.8925a.31863.31863,0,0,1,.3125-.3246h6.4255a.299.299,0,0,1,.0887.0133,2.73664,2.73664,0,0,1-.6234.2493,6.73671,6.73671,0,0,1-1.3596.1733l-.0938.0055q-1.2075.0702-2.4146.1412l-.0347.002a5.83578,5.83578,0,0,0-1.2428.1652,2.12483,2.12483,0,0,0-1.0281.6053A.33169.33169,0,0,1,2.00693,12.7519Z" fill="#2f405c"/>
      </g>
      <path d="M.03083,16.1609l1.5094.482-.1082.3656a.32411.32411,0,0,1-.4081.2245l-.5332-.1702a.70555.70555,0,0,1-.4575-.4701A.74388.74388,0,0,1,.03083,16.1609Z"/>
      <path d="M.03323,16.5927c.0584.0324.1165.066.1744.0962a1.67227,1.67227,0,0,0,1.2923.0901l-.0679.2295a.32411.32411,0,0,1-.4081.2245l-.5332-.1702A.70555.70555,0,0,1,.03323,16.5927Z"/>
      <path d="M11.27158,16.1609l-1.5095.482.1083.3656a.32407.32407,0,0,0,.4081.2245l.5331-.1702a.70569.70569,0,0,0,.4576-.4701A.74471.74471,0,0,0,11.27158,16.1609Z"/>
      <path d="M11.26918,16.5927c-.0585.0324-.1166.066-.1744.0962a1.67248,1.67248,0,0,1-1.2924.0901l.068.2295a.32407.32407,0,0,0,.4081.2245l.5331-.1702A.70569.70569,0,0,0,11.26918,16.5927Z"/>
      <g opacity="0.04">
        <path d="M1.295,20.6419v-18.93A1.74385,1.74385,0,0,1,1.81343.46555a1.647,1.647,0,0,1,.5225-.34526A1.59283,1.59283,0,0,1,2.94323,0h2.8693c.3489,7.6135-1.5167,15.315-1.1381,22.8499H3.46123a1.61493,1.61493,0,0,1-1.1183-.4541l-.5178-.4959A1.74506,1.74506,0,0,1,1.295,20.6419Z"/>
      </g>
      <g>
        <path d="M4.15648,20.12305a.24456.24456,0,0,1-.27731.25744H3.63309V20.601H3.45515v-.73494h.424A.24535.24535,0,0,1,4.15648,20.12305Zm-.18077.00426c0-.0743-.04543-.09843-.11168-.09843H3.63309v.19639H3.864C3.93028,20.22527,3.97571,20.20113,3.97571,20.12731Z" fill="#fbfdfd"/>
        <path d="M4.26438,20.23331A.36442.36442,0,0,1,4.6619,19.842a.39166.39166,0,1,1,0,.7832A.36455.36455,0,0,1,4.26438,20.23331Zm.61521,0a.21722.21722,0,1,0-.21769.21769A.19968.19968,0,0,0,4.87959,20.23331Z" fill="#fbfdfd"/>
        <path d="M5.80807,20.42876V20.601h-.5887v-.73494h.17794v.56268Z" fill="#fbfdfd"/>
        <path d="M5.94342,20.601v-.73494h.17793V20.601Z" fill="#fbfdfd"/>
        <path d="M6.853,20.33837l.15239.09465a.3781.3781,0,0,1-.34452.19213.39163.39163,0,0,1,.00757-.7832.37575.37575,0,0,1,.335.19119l-.15427.09417a.21224.21224,0,1,0-.18362.32369A.198.198,0,0,0,6.853,20.33837Z" fill="#fbfdfd"/>
        <path d="M7.79471,20.43728V20.601H7.14354v-.73494h.64171v.16374H7.31864v.12068H7.7029v.15664H7.31864v.13014Z" fill="#fbfdfd"/>
      </g>
      <g>
        <path d="M4.10979,10.31906a.25233.25233,0,0,1-.28613.26562h-.2539v.22754h-.1836v-.7583h.4375A.25315.25315,0,0,1,4.10979,10.31906Zm-.18652.00439c0-.07666-.04687-.10156-.11523-.10156H3.56976v.20264H3.808C3.8764,10.42453,3.92327,10.39963,3.92327,10.32345Z"/>
        <path d="M4.22112,10.43283a.376.376,0,0,1,.41016-.40381.40412.40412,0,1,1,0,.80811A.37615.37615,0,0,1,4.22112,10.43283Zm.63477,0a.22412.22412,0,1,0-.22461.22461A.206.206,0,0,0,4.85589,10.43283Z"/>
        <path d="M5.8139,10.63449v.17773H5.20647v-.7583h.1836v.58057Z"/>
        <path d="M5.95354,10.81222v-.7583h.1836v.7583Z"/>
        <path d="M6.892,10.54123l.15723.09765a.39013.39013,0,0,1-.35547.19825.40408.40408,0,0,1,.00781-.80811.38769.38769,0,0,1,.3457.19727l-.15918.09716a.219.219,0,1,0-.18945.334A.20428.20428,0,0,0,6.892,10.54123Z"/>
        <path d="M7.8637,10.64328v.16894H7.19183v-.7583h.6621v.169H7.37249v.12451H7.769V10.509H7.37249v.13428Z"/>
      </g>
      <g>
        <path d="M7.14007,2.52639a.25234.25234,0,0,1,.28613-.26563h.25391V2.03322H7.8637v.7583H7.4262A.25315.25315,0,0,1,7.14007,2.52639Zm.18652-.0044c0,.07666.04688.10157.11524.10157h.23828V2.42092H7.44183C7.37347,2.42092,7.32659,2.44582,7.32659,2.522Z" fill="#fbfdfd"/>
        <path d="M7.02874,2.41262a.376.376,0,0,1-.41016.40381.37675.37675,0,0,1-.41113-.40381.37688.37688,0,0,1,.41113-.4043A.37614.37614,0,0,1,7.02874,2.41262Zm-.63477,0a.22413.22413,0,0,0,.44825,0,.22413.22413,0,1,0-.44825,0Z" fill="#fbfdfd"/>
        <path d="M5.436,2.211V2.03322h.60742v.7583h-.1836V2.211Z" fill="#fbfdfd"/>
        <path d="M5.29632,2.03322v.7583h-.1836v-.7583Z" fill="#fbfdfd"/>
        <path d="M4.35784,2.30422l-.15723-.09766a.39014.39014,0,0,1,.35547-.19824.37263.37263,0,0,1,.39746.4043.37462.37462,0,0,1-.40527.40381.38769.38769,0,0,1-.3457-.19727L4.36175,2.522A.21516.21516,0,0,0,4.767,2.41262a.21708.21708,0,0,0-.40918-.1084Z" fill="#fbfdfd"/>
        <path d="M3.38616,2.20217v-.169H4.058v.7583H3.39593V2.62258h.48144V2.49807H3.48089V2.33645h.39648V2.20217Z" fill="#fbfdfd"/>
      </g>
      <path d="M3.84783,22.24822a3.62671,3.62671,0,0,1-1.108-.11023c-.3275-.10072-.5617-.30076-.4797-.49211a9.143,9.143,0,0,1,1.0231.2044,1.8885,1.8885,0,0,1,.4503.16266c.1223.071.1495.14276.1135.2357Z" fill="#fff" opacity="0.4"/>
      <path d="M7.17253,22.27825a3.62736,3.62736,0,0,0,1.1081-.11024c.3274-.10071.5616-.30075.4796-.4921a9.14075,9.14075,0,0,0-1.0231.2044,1.88607,1.88607,0,0,0-.4502.16266c-.1224.071-.1496.14275-.1136.23569Z" fill="#fff" opacity="0.4"/>
      <path d="M3.71582.55163a3.798,3.798,0,0,0-1.7317.73425.84046.84046,0,0,1,.4082-.68079,2.37979,2.37979,0,0,1,.7728-.28594A.64.64,0,0,1,3.53522.306c.1174.04406.2371.11869.1716.22562Z" fill="#eb0008"/>
      <path d="M7.62312.55163a3.79884,3.79884,0,0,1,1.7318.73425.84056.84056,0,0,0-.4083-.68079,2.37979,2.37979,0,0,0-.7728-.28594A.64.64,0,0,0,7.80372.306c-.1174.04406-.2629.11869-.1974.22562Z" fill="#eb0008"/>
    </g>
  </g>
</svg>
