<svg xmlns="http://www.w3.org/2000/svg" width="11.24316" height="23.27008" viewBox="0 0 11.24316 23.27008">
  <g style="isolation: isolate">
    <g>
      <path d="M11.21228,6.812l-1.5094-.4909.1083-.3723a.32333.32333,0,0,1,.4081-.2286l.5331.1733a.71327.71327,0,0,1,.4576.4788A.77077.77077,0,0,1,11.21228,6.812Z" fill="#fcfcfc"/>
      <path d="M11.21228,6.812l-1.5094-.4909.1083-.3723a.32333.32333,0,0,1,.4081-.2286l.5331.1733a.71327.71327,0,0,1,.4576.4788A.77077.77077,0,0,1,11.21228,6.812Z" opacity="0.04"/>
      <path d="M9.786,20.62448h0a.38011.38011,0,0,1-.379-.379V18.331a.38011.38011,0,0,1,.379-.379h0a.38018.38018,0,0,1,.379.379v1.9145A.38018.38018,0,0,1,9.786,20.62448Z" fill="#1e1e1e"/>
      <path d="M1.40618,20.42408h0a.38011.38011,0,0,1-.379-.379v-1.9145a.38.38,0,0,1,.379-.379h0a.38011.38011,0,0,1,.379.379v1.9145A.38018.38018,0,0,1,1.40618,20.42408Z" fill="#1e1e1e"/>
      <path d="M9.90838,4.79018h0a.38011.38011,0,0,1-.379-.379V2.4967a.38008.38008,0,0,1,.379-.379h0a.38015.38015,0,0,1,.379.379V4.41118A.38018.38018,0,0,1,9.90838,4.79018Z" fill="#1e1e1e"/>
      <path d="M1.31648,4.58968h0a.38.38,0,0,1-.379-.379V2.29626a.38008.38008,0,0,1,.379-.379h0a.38015.38015,0,0,1,.379.379V4.21072A.38011.38011,0,0,1,1.31648,4.58968Z" fill="#1e1e1e"/>
      <path d="M9.94818,2.24855V21.52668a1.79279,1.79279,0,0,1-.5185,1.2693,1.64544,1.64544,0,0,1-.5225.3516,1.56825,1.56825,0,0,1-.6073.1225H2.96818a1.59691,1.59691,0,0,1-1.0954-.4408,1.84173,1.84173,0,0,1-.4317-.6224,1.93244,1.93244,0,0,1-.1529-.7545V2.39328a1.79678,1.79678,0,0,1,.4829-1.23289l.6144-.64966A1.604,1.604,0,0,1,3.55088,0h4.231a1.5999,1.5999,0,0,1,1.1184.46249L9.418.96742A1.79345,1.79345,0,0,1,9.94818,2.24855Z" fill="#fbfdfd"/>
      <path d="M7.446.49036A3.62671,3.62671,0,0,1,8.554.60059c.3275.10072.5617.30076.4797.49211A9.143,9.143,0,0,1,8.01058.8883a1.8885,1.8885,0,0,1-.4503-.16266c-.1223-.071-.1495-.14276-.1135-.2357Z" opacity="0.4"/>
      <path d="M4.12128.46033a3.62736,3.62736,0,0,0-1.1081.11024c-.3274.10071-.5616.30075-.4796.4921a9.14075,9.14075,0,0,0,1.0231-.2044,1.88607,1.88607,0,0,0,.4502-.16266c.1224-.071.1496-.14275.1136-.23569Z" opacity="0.4"/>
      <path d="M9.48828,5.06748l-.8189,2.3832-.8124-.1623a13.20861,13.20861,0,0,0-1.6024-.1679q-.41595-.0168-.833-.0087a13.04574,13.04574,0,0,0-1.4691.1136q-.2088.028-.4165.063l-.8124.1623-.8189-2.3832.0171-.005.4077-.1073a13.09092,13.09092,0,0,1,3.6572-.4337c.0372.0006.0738.0019.111.0031a13.056,13.056,0,0,1,2.8614.4069Z" opacity="0.7"/>
      <path d="M2.79278,12.18188l-.9423-.0275-.1346-5.4427-.0088-.3371c.2999.7344.5759,1.2996.81,2.0423.2575.8173.3905,1.3296.5851,2.1661.0812.3505.0052,1.2559.0461,1.6091Z" opacity="0.7"/>
      <path d="M3.16068,13.01278q-.0021.2859-.0158.572a7.20654,7.20654,0,0,1-.9614,3.5361,2.64608,2.64608,0,0,1-.2646.3317L1.87,13.17108l.8729-.1075Z" opacity="0.7"/>
      <path d="M8.48908,12.18188l.9423-.0275.1346-5.4427.0088-.3371c-.2999.7344-.5759,1.2996-.81,2.0423-.2576.8173-.3905,1.3296-.5851,2.1661-.0812.3505-.0052,1.2559-.0462,1.6091Z" opacity="0.7"/>
      <path d="M8.12118,13.01278q.0021.2859.0158.572a7.20654,7.20654,0,0,0,.9614,3.5361,2.64608,2.64608,0,0,0,.2646.3317l.0489-4.2815-.8729-.1075Z" opacity="0.7"/>
      <path d="M2.62478,18.26908l.6634-1.9305.6581.1314a10.69133,10.69133,0,0,0,1.298.136q.33705.01365.6749.0071a10.55781,10.55781,0,0,0,1.19-.092q.1692-.0228.3374-.0511l.6581-.1314.6634,1.9305-.0139.0041-.3302.0869a10.60242,10.60242,0,0,1-2.9627.3513c-.0301-.0005-.0597-.0015-.0898-.0025a10.58034,10.58034,0,0,1-2.318-.3296Z" opacity="0.7"/>
      <path d="M5.69643,9.95308v1.57H2.66256a.6662.6662,0,0,1-.13536-.0135c-.19746-.0403-.34152-.1669-.34152-.317v-.9089c0-.1825.21319-.3306.47688-.3306Z" fill="#2b7ccc"/>
      <path d="M9.23618,10.28368v.9089c0,.1825-.2148.3305-.48068.3305h-3.059v-1.57h3.059a.52632.52632,0,0,1,.43514.1901A.24658.24658,0,0,1,9.23618,10.28368Z" fill="#c73333"/>
      <g opacity="0.35" style="mix-blend-mode: multiply">
        <path d="M9.23618,10.28368v.9089a.32168.32168,0,0,1-.3124.3305H2.49818a.29272.29272,0,0,1-.0887-.0135,2.71037,2.71037,0,0,1,.6234-.2539,6.62823,6.62823,0,0,1,1.3597-.1765l.0937-.0056q1.2075-.0714,2.4147-.1438l.0347-.0019a5.7397,5.7397,0,0,0,1.2428-.1683,2.11793,2.11793,0,0,0,1.0281-.6164A.34422.34422,0,0,1,9.23618,10.28368Z" fill="#2f405c"/>
      </g>
      <path d="M.03088,6.812l1.5094-.4909-.1082-.3723a.32343.32343,0,0,0-.4082-.2286l-.5331.1733a.71327.71327,0,0,0-.4576.4788A.77077.77077,0,0,0,.03088,6.812Z" fill="#fcfcfc"/>
      <path d="M.03318,6.37228c.0585-.033.1166-.0673.1744-.098A1.64506,1.64506,0,0,1,1.5,6.18248l-.0679-.2337a.32343.32343,0,0,0-.4082-.2286l-.5331.1733A.71327.71327,0,0,0,.03318,6.37228Z" fill="#fcfcfc"/>
      <g opacity="0.04" style="mix-blend-mode: multiply">
        <path d="M9.94818,2.24855V21.52668a1.79279,1.79279,0,0,1-.5185,1.2693,1.64544,1.64544,0,0,1-.5225.3516,1.56825,1.56825,0,0,1-.6073.1225H5.43058C5.08168,15.51658,6.94728,7.67338,6.56878,0h1.2131a1.5999,1.5999,0,0,1,1.1184.46249L9.418.96742A1.79345,1.79345,0,0,1,9.94818,2.24855Z"/>
      </g>
      <path d="M7.65018,22.71288a3.798,3.798,0,0,0,1.7317-.73425.84046.84046,0,0,1-.4082.68079,2.37979,2.37979,0,0,1-.7728.28594.64.64,0,0,1-.3701.01318c-.1174-.04406-.2371-.11869-.1716-.22562Z" fill="#eb0008"/>
      <path d="M3.74288,22.71288a3.79884,3.79884,0,0,1-1.7318-.73425.84056.84056,0,0,0,.4083.68079,2.37979,2.37979,0,0,0,.7728.28594.64.64,0,0,0,.3701.01318c.1174-.04406.2629-.11869.1974-.22562Z" fill="#eb0008"/>
      <g>
        <path d="M4.25445,20.53556a.24457.24457,0,0,1-.27732.25744H3.73105v.22053H3.55311v-.73494h.424A.24535.24535,0,0,1,4.25445,20.53556Zm-.18078.00426c0-.0743-.04543-.09843-.11168-.09843H3.73105v.19639H3.962C4.02824,20.63778,4.07367,20.61364,4.07367,20.53982Z" fill="#2b7ccc"/>
        <path d="M4.36234,20.64582a.36442.36442,0,0,1,.39752-.39136.39166.39166,0,1,1,0,.7832A.36455.36455,0,0,1,4.36234,20.64582Zm.61521,0a.21722.21722,0,1,0-.21769.21769A.19968.19968,0,0,0,4.97755,20.64582Z" fill="#2b7ccc"/>
        <path d="M5.906,20.84127v.17226h-.5887v-.73494h.17794v.56268Z" fill="#2b7ccc"/>
        <path d="M6.04138,21.01353v-.73494h.17794v.73494Z" fill="#2b7ccc"/>
        <path d="M6.95094,20.75088l.15238.09465a.3781.3781,0,0,1-.34452.19213.39163.39163,0,0,1,.00757-.7832.37576.37576,0,0,1,.335.19118l-.15427.09418a.21224.21224,0,1,0-.18361.32369A.198.198,0,0,0,6.95094,20.75088Z" fill="#2b7ccc"/>
        <path d="M7.89267,20.84979v.16374H7.2415v-.73494h.64171v.16374H7.4166V20.563h.38427v.15664H7.4166v.13014Z" fill="#2b7ccc"/>
      </g>
      <g>
        <path d="M4.20776,12.48212a.25234.25234,0,0,1-.28614.26562h-.2539v.22754h-.1836V12.217h.4375A.25316.25316,0,0,1,4.20776,12.48212Zm-.18653.00439c0-.07666-.04687-.10156-.11523-.10156H3.66772v.20264H3.906C3.97436,12.58759,4.02123,12.56269,4.02123,12.48651Z" fill="#2b7ccc"/>
        <path d="M4.31908,12.59589a.376.376,0,0,1,.41016-.40381.40412.40412,0,1,1,0,.80811A.37615.37615,0,0,1,4.31908,12.59589Zm.63477,0a.22412.22412,0,1,0-.22461.22461A.206.206,0,0,0,4.95385,12.59589Z" fill="#2b7ccc"/>
        <path d="M5.91186,12.79755v.17773H5.30444V12.217H5.488v.58057Z" fill="#2b7ccc"/>
        <path d="M6.05151,12.97528V12.217H6.2351v.7583Z" fill="#2b7ccc"/>
        <path d="M6.99,12.70429l.15723.09765a.39012.39012,0,0,1-.35547.19825.40408.40408,0,0,1,.00781-.80811.38772.38772,0,0,1,.34571.19727l-.15918.09716a.219.219,0,1,0-.18946.334A.20428.20428,0,0,0,6.99,12.70429Z" fill="#2b7ccc"/>
        <path d="M7.96166,12.80634v.16894H7.28979V12.217H7.9519v.169H7.47045v.12451h.39649v.16162H7.47045v.13428Z" fill="#2b7ccc"/>
      </g>
      <g>
        <path d="M7.238,2.48148a.25234.25234,0,0,1,.28613-.26562h.25391V1.98832h.18359v.7583h-.4375A.25315.25315,0,0,1,7.238,2.48148Zm.18652-.00439c0,.07666.04688.10156.11524.10156h.23828V2.376H7.53979C7.47143,2.376,7.42455,2.40091,7.42455,2.47709Z" fill="#2b7ccc"/>
        <path d="M7.1267,2.36771a.376.376,0,0,1-.41015.40381.37675.37675,0,0,1-.41114-.40381.37689.37689,0,0,1,.41114-.4043A.37614.37614,0,0,1,7.1267,2.36771Zm-.63476,0a.22412.22412,0,1,0,.44824,0,.22412.22412,0,1,0-.44824,0Z" fill="#2b7ccc"/>
        <path d="M5.53393,2.166V1.98832h.60742v.7583H5.95776V2.166Z" fill="#2b7ccc"/>
        <path d="M5.39428,1.98832v.7583H5.21069v-.7583Z" fill="#2b7ccc"/>
        <path d="M4.4558,2.25931l-.15722-.09765a.39011.39011,0,0,1,.35547-.19825.37263.37263,0,0,1,.39746.4043.37463.37463,0,0,1-.40528.40381.3877.3877,0,0,1-.3457-.19727l.15918-.09716A.21516.21516,0,0,0,4.865,2.36771a.21708.21708,0,0,0-.40918-.1084Z" fill="#2b7ccc"/>
        <path d="M3.48412,2.15726V1.98832H4.156v.7583H3.49389v-.169h.48144V2.45316H3.57885V2.29154h.39648V2.15726Z" fill="#2b7ccc"/>
      </g>
    </g>
  </g>
</svg>
