<svg xmlns="http://www.w3.org/2000/svg" width="11.33224" height="23.41342" viewBox="0 0 11.33224 23.41342">
  <g>
    <path d="M10.35615,17.86172h0a.66555.66555,0,0,1,.6636.6637v1.5985a.66555.66555,0,0,1-.6636.6637h0a.66563.66563,0,0,1-.6637-.6637v-1.5985A.66563.66563,0,0,1,10.35615,17.86172Z" fill="#1e1e1e"/>
    <path d="M.78806,17.86172h0a.66558.66558,0,0,1,.66364.6637v1.5985a.66558.66558,0,0,1-.66364.6637h0a.66558.66558,0,0,1-.66365-.6637v-1.5985A.66558.66558,0,0,1,.78806,17.86172Z" fill="#1e1e1e"/>
    <path d="M10.35615,1.724h0a.66556.66556,0,0,1,.6636.66365V3.98621a.66553.66553,0,0,1-.6636.66361h0a.66561.66561,0,0,1-.6637-.66361V2.38762A.66565.66565,0,0,1,10.35615,1.724Z" fill="#1e1e1e"/>
    <path d="M.78806,1.724h0a.6656.6656,0,0,1,.66364.66365V3.98621a.66556.66556,0,0,1-.66364.66361h0a.66556.66556,0,0,1-.66365-.66361V2.38762A.6656.6656,0,0,1,.78806,1.724Z" fill="#1e1e1e"/>
    <path d="M.46189,21.64312V.611A.68292.68292,0,0,1,1.199,0H9.95285a.68272.68272,0,0,1,.7369.611V21.63872a1.29839,1.29839,0,0,1-.3965.9148l-.3378.3385a1.89137,1.89137,0,0,1-1.335.5214H2.47919a1.86245,1.86245,0,0,1-1.41341-.6062l-.2851-.3336A1.278,1.278,0,0,1,.46189,21.64312Z" fill="#0a0a0a"/>
    <path d="M.02969,16.98492l1.45288.3704-.10419.2808a.3293.3293,0,0,1-.39283.1725l-.51317-.1308a.62105.62105,0,0,1-.44043-.3612A.46185.46185,0,0,1,.02969,16.98492Z" fill="#161616"/>
    <path d="M.032,17.31662c.05629.0249.11221.0508.16787.074a1.98335,1.98335,0,0,0,1.244.0692l-.06541.1763a.3293.3293,0,0,1-.39283.1725l-.51317-.1308A.62105.62105,0,0,1,.032,17.31662Z" fill="#161616"/>
    <path d="M11.30255,16.98492l-1.4529.3704.1042.2808a.32939.32939,0,0,0,.3929.1725l.5131-.1308a.62115.62115,0,0,0,.4405-.3612A.46222.46222,0,0,0,11.30255,16.98492Z" fill="#161616"/>
    <path d="M11.30035,17.31662c-.0563.0249-.1123.0508-.1679.074a1.98347,1.98347,0,0,1-1.244.0692l.0654.1763a.32939.32939,0,0,0,.3929.1725l.5131-.1308A.62115.62115,0,0,0,11.30035,17.31662Z" fill="#161616"/>
    <path d="M1.395,18.17462l.91588-2.0891.90864.1422c.59452.0777,1.193.1269,1.79216.1472q.4653.0147.9317.0076c.5484-.0087,1.0974-.0421,1.6431-.0995.1558-.0164.3108-.035.4659-.0553l.9086-.1422.9159,2.0891-.0191.0044-.456.0941a18.48906,18.48906,0,0,1-4.0905.3802c-.0416-.0005-.0825-.0016-.1241-.0027a18.39285,18.39285,0,0,1-3.2003-.3567Z" fill="#fff" opacity="0.12"/>
    <path d="M9.066,10.89732l.2285.0115.2084.0104.5522.0279.0789,5.5383.0052.343.0017.1324C9.47545,16.132,9.15685,13.55432,9.066,10.89732Z" fill="#fff" opacity="0.12"/>
    <path d="M9.06085,10.417c.0038-.6323.0254-1.26.0523-1.8626.0161-.3619.0677-.4278.3374-.401h.5664l.0021.1406.0292,2.0268-.5205.0508-.2491.0241Z" fill="#fff" opacity="0.12"/>
    <path d="M.95616,16.96082l.00737-.4754.085-5.5383.575-.0268.01987-.0011.47059-.0219c-.09236,2.5022-.40179,4.9338-1.03632,5.901A1.5832,1.5832,0,0,1,.95616,16.96082Z" fill="#fff" opacity="0.12"/>
    <path d="M1.0559,10.32082l.03371-2.1674h.61006c.33024-.0048.33024-.0048.36346.401.04917.6008.05217,1.2303.05635,1.8626l-.50293-.0454L1.60038,10.37Z" fill="#fff" opacity="0.12"/>
    <path d="M2.01771,7.91172l-.20634-.0115-.18813-.0104-.49863-.0279L1.05339,2.32365l-.00465-.343-.00155-.13238C1.648,2.677,1.93564,5.25472,2.01771,7.91172Z" fill="#fff" opacity="0.12"/>
    <path d="M10.05145,1.84827l-.0054.47538-.0627,5.53827-.4237.0268-.0147.0011-.3469.0219c.0681-2.5022.2962-4.93381.7639-5.901A1.62865,1.62865,0,0,1,10.05145,1.84827Z" fill="#fff" opacity="0.12"/>
    <path d="M9.67015,1.61454l-.8725,1.09615L7.932,2.63607c-.5664-.04076-1.1366-.06659-1.7074-.07721q-.4431-.00776-.8876-.004c-.5224.00459-1.04545.0221-1.56531.05224q-.22257.01292-.44386.029l-.86561.07462L1.58959,1.61454l.01824-.0023.4344-.04937a31.63558,31.63558,0,0,1,3.89692-.19948c.0396.00028.0786.00086.1182.00143,1.0234.01321,2.0456.07578,3.0489.18714Z" fill="#fff" opacity="0.12"/>
    <path d="M8.12055,22.96832a3.98822,3.98822,0,0,0,1.5645-1.0056.653.653,0,0,1-.2322.6653,2.5605,2.5605,0,0,1-.7094.4136.77679.77679,0,0,1-.373.0936c-.1313-.011-.2732-.0472-.2354-.152Z" fill="#fff" opacity="0.4"/>
    <path d="M10.14275.95152c-.1509-.09621-.2672-.17014-.3812-.2357C9.64905.65037,9.54335.595,9.43735.54353c-.1064-.051-.2172-.09939-.3418-.1476-.1255-.04933-.2609-.09578-.4367-.15567L8.65215.21533a1.52229,1.52229,0,0,1,.2386-.03112,1.57443,1.57443,0,0,1,.242.00993,1.50135,1.50135,0,0,1,.4587.12834A1.264,1.264,0,0,1,9.95455.588a1.08461,1.08461,0,0,1,.1311.16893.95645.95645,0,0,1,.0865.187Z" fill="#eb0008"/>
    <path d="M3.21834,22.96362a4.003,4.003,0,0,1-1.57263-.9968.65441.65441,0,0,0,.23764.664,2.5696,2.5696,0,0,0,.71276.4096.77785.77785,0,0,0,.37376.0915c.13121-.0117.27281-.0487.2341-.1533Z" fill="#fff" opacity="0.4"/>
    <path d="M1.02488.95152c.15093-.09621.26719-.17014.38117-.2357C1.51856.65037,1.62426.595,1.7303.54353c.10633-.051.21718-.09939.34181-.1476C2.19755.3466,2.333.30015,2.50877.24026L2.51551.21533A1.52294,1.52294,0,0,0,2.27687.18421a1.57508,1.57508,0,0,0-.242.00993,1.50181,1.50181,0,0,0-.45871.12834A1.26423,1.26423,0,0,0,1.21309.588,1.08664,1.08664,0,0,0,1.082.75694a.95766.95766,0,0,0-.08651.187Z" fill="#eb0008"/>
    <g opacity="0.2">
      <path d="M.46189,21.64312V.611A.68292.68292,0,0,1,1.199,0H6.23375c.0024.04678.0046.09357.0066.13991a66.34373,66.34373,0,0,1-.4388,11.106c-.5006,4.0358-1.36715,8.1538-1.18244,12.1675H2.47919a1.86245,1.86245,0,0,1-1.41341-.6062l-.2851-.3336A1.278,1.278,0,0,1,.46189,21.64312Z"/>
    </g>
  </g>
</svg>
