<svg xmlns="http://www.w3.org/2000/svg" width="11.13981" height="23.41346" viewBox="0 0 11.13981 23.41346">
  <g style="isolation: isolate">
    <g>
      <path d="M11.1106,7.08746l-1.4282-.3704.1024-.2809a.322.322,0,0,1,.3862-.1725l.5045.1308a.61358.61358,0,0,1,.4329.3612A.46944.46944,0,0,1,11.1106,7.08746Z"/>
      <path d="M11.1084,6.75566c-.0553-.0249-.1103-.0507-.165-.0739a1.91873,1.91873,0,0,0-1.2229-.0693l.0643-.1763a.322.322,0,0,1,.3862-.1725l.5045.1308A.61358.61358,0,0,1,11.1084,6.75566Z" fill="#0a0a0a"/>
      <path d="M.0292,7.08746l1.4282-.3704-.1024-.2809a.322.322,0,0,0-.3862-.1725l-.5044.1308a.61355.61355,0,0,0-.433.3612A.46944.46944,0,0,0,.0292,7.08746Z"/>
      <path d="M.0314,6.75566c.0553-.0249.1103-.0507.165-.0739a1.91873,1.91873,0,0,1,1.2229-.0693l-.0643-.1763a.322.322,0,0,0-.3862-.1725l-.5044.1308A.61355.61355,0,0,0,.0314,6.75566Z" fill="#0a0a0a"/>
      <path d="M.9596,5.55166h0a.65426.65426,0,0,1-.6524-.6523V3.27818A.65432.65432,0,0,1,.9596,2.6258h0a.65423.65423,0,0,1,.6523.65238V4.89936A.65417.65417,0,0,1,.9596,5.55166Z" fill="#1e1e1e"/>
      <path d="M10.3651,5.55166h0a.65417.65417,0,0,1-.6523-.6523V3.27818a.65423.65423,0,0,1,.6523-.65238h0a.65426.65426,0,0,1,.6524.65238V4.89936A.65419.65419,0,0,1,10.3651,5.55166Z" fill="#1e1e1e"/>
      <path d="M.9596,21.68946h0a.65434.65434,0,0,1-.6524-.6524V19.416a.65434.65434,0,0,1,.6524-.6524h0a.65426.65426,0,0,1,.6523.6524v1.6211A.65426.65426,0,0,1,.9596,21.68946Z" fill="#1e1e1e"/>
      <path d="M10.3651,21.68946h0a.65426.65426,0,0,1-.6523-.6524V19.416a.65426.65426,0,0,1,.6523-.6524h0a.65428.65428,0,0,1,.6524.6524v1.6211A.65428.65428,0,0,1,10.3651,21.68946Z" fill="#1e1e1e"/>
      <path d="M10.6858,1.77022V22.80236a.67514.67514,0,0,1-.7246.6111H1.3561a.67508.67508,0,0,1-.7246-.6111V1.7746A1.30963,1.30963,0,0,1,1.0213.86L1.3535.52133A1.84206,1.84206,0,0,1,2.6657,0H8.7028a1.81685,1.81685,0,0,1,1.3894.60612l.2803.33369A1.29056,1.29056,0,0,1,10.6858,1.77022Z" fill="#0c0c0c"/>
      <g opacity="0.35" style="mix-blend-mode: multiply">
        <path d="M10.6858,1.77022V22.80236a.67514.67514,0,0,1-.7246.6111H6.0621a.62028.62028,0,0,1,.0253-.4317c.1888-.4409.794-.6225,1.2292-.9141a3.32734,3.32734,0,0,0,1.1566-2.6909q.4359-4.9488.8711-9.8976.0633-.71475.1259-1.4305.1731-1.9677.3464-3.936A4.41835,4.41835,0,0,0,9.4981,1.541a2.12369,2.12369,0,0,0-.48-.57385A2.62627,2.62627,0,0,0,8.2384.52407,7.66553,7.66553,0,0,0,5.6593.20623,7.52539,7.52539,0,0,0,2.8467.56017a2.99781,2.99781,0,0,0-.3983.19639,2.66056,2.66056,0,0,0-.8439.78664,3.39,3.39,0,0,0-.5527,2.07494,4.79824,4.79824,0,0,0,.4833,1.87472c.2004.4119.4599.8041.6195,1.2287a5.63513,5.63513,0,0,1,.2607,1.855q.11,4.05675.2206,8.1142l2.0835,1.5176a7.42859,7.42859,0,0,0,.6441,2.9447,3.362,3.362,0,0,1,.0208,2.2604H1.3561a.67508.67508,0,0,1-.7246-.6111V1.7746A1.30963,1.30963,0,0,1,1.0213.86L1.3535.52133A1.84206,1.84206,0,0,1,2.6657,0H8.7028a1.81685,1.81685,0,0,1,1.3894.60612l.2803.33369A1.29056,1.29056,0,0,1,10.6858,1.77022Z" fill="#2d2d2d"/>
      </g>
      <path d="M9.7685,5.89766l-.9003,2.0892-.8932-.1423c-.5844-.0777-1.1728-.1269-1.7618-.1471q-.4572-.01485-.9159-.0077c-.539.0088-1.0787.0421-1.6151.0996q-.22965.0246-.458.0552l-.8932.1423-.9003-2.0892.0188-.0044.4482-.0941a17.88807,17.88807,0,0,1,4.021-.3802c.0409.0006.0811.0017.122.0028a17.78539,17.78539,0,0,1,3.146.3566Z" fill="#fff" opacity="0.12"/>
      <path d="M2.7974,13.175l-.3457-.0115-.3153-.0104-.8355-.0279L1.1816,7.587l-.0078-.343-.0026-.1324C2.1779,7.94036,2.6599,10.518,2.7974,13.175Z" fill="#fff" opacity="0.12"/>
      <path d="M2.8052,13.65526c-.0059.6324-.0311,1.2604-.0792,1.8627a.48313.48313,0,0,1-.5105.401H1.3587l-.0033-.1406-.0441-2.0268.7875-.0509.3769-.0241Z" fill="#fff" opacity="0.12"/>
      <path d="M10.1668,16.90735v5.24714a.71055.71055,0,0,1-.7784.6054H1.864a.71062.71062,0,0,1-.7784-.6054V16.90735a.71062.71062,0,0,1,.7784-.60549H9.3884A.71055.71055,0,0,1,10.1668,16.90735Z"/>
      <path d="M10.1999,7.11156l-.0104.4754-.1193,5.5382-.8076.0268-.0279.0011-.661.0219c.1297-2.5022.5644-4.9338,1.4556-5.9009A1.73473,1.73473,0,0,1,10.1999,7.11156Z" fill="#fff" opacity="0.12"/>
      <path d="M10.0598,13.75156l-.0473,2.1674H9.1556a.48313.48313,0,0,1-.5105-.401c-.048-.6023-.0733-1.2303-.0792-1.8627l.7064.0454.0227.0017Z" fill="#fff" opacity="0.12"/>
      <path d="M1.5468,19.21486V21.129a.53523.53523,0,0,1-.4612.4923v-2.8987A.53419.53419,0,0,1,1.5468,19.21486Z" opacity="0.35" style="mix-blend-mode: multiply"/>
      <path d="M10.1668,18.71376v2.9163a.54568.54568,0,0,1-.5189-.5011v-1.9141A.54521.54521,0,0,1,10.1668,18.71376Z" opacity="0.35" style="mix-blend-mode: multiply"/>
      <path d="M2.8584.51914a.11549.11549,0,0,1-.0117.041,2.99781,2.99781,0,0,0-.3983.19639,2.66056,2.66056,0,0,0-.8439.78664.1675.1675,0,0,1-.107-.2035.36685.36685,0,0,1,.1342-.16794,3.51006,3.51006,0,0,1,.6714-.675A.5968.5968,0,0,1,2.6125.35119C2.7319.34135,2.8674.41794,2.8584.51914Z" fill="#fff" opacity="0.4"/>
      <path d="M9.4981,1.541a2.12369,2.12369,0,0,0-.48-.57385A2.62627,2.62627,0,0,0,8.2384.52407L8.2371.51914c-.0091-.1012.1265-.17779.2458-.168a.5968.5968,0,0,1,.3094.14552,3.5072,3.5072,0,0,1,.6714.675.36773.36773,0,0,1,.1343.16794A.16828.16828,0,0,1,9.4981,1.541Z" fill="#fff" opacity="0.4"/>
      <path d="M9.6135,17.34126H1.574a.16465.16465,0,0,1-.1641-.1641h0a.16459.16459,0,0,1,.1641-.1641H9.6135a.16452.16452,0,0,1,.1641.1641h0A.16459.16459,0,0,1,9.6135,17.34126Z" fill="#fff" opacity="0.08"/>
      <path d="M9.6135,18.04556H1.574a.16465.16465,0,0,1-.1641-.1641h0a.16459.16459,0,0,1,.1641-.1641H9.6135a.16452.16452,0,0,1,.1641.1641h0A.16459.16459,0,0,1,9.6135,18.04556Z" fill="#fff" opacity="0.08"/>
      <path d="M9.6135,22.27146H1.574a.16459.16459,0,0,1-.1641-.1641h0a.16459.16459,0,0,1,.1641-.1641H9.6135a.16452.16452,0,0,1,.1641.1641h0A.16452.16452,0,0,1,9.6135,22.27146Z" fill="#fff" opacity="0.08"/>
      <path d="M9.6135,21.56716H1.574a.16465.16465,0,0,1-.1641-.1641h0a.16459.16459,0,0,1,.1641-.1641H9.6135a.16452.16452,0,0,1,.1641.1641h0A.16459.16459,0,0,1,9.6135,21.56716Z" fill="#fff" opacity="0.08"/>
      <path d="M9.6135,20.86286H1.574a.16465.16465,0,0,1-.1641-.1641h0a.16467.16467,0,0,1,.1641-.1642H9.6135a.16461.16461,0,0,1,.1641.1642h0A.16459.16459,0,0,1,9.6135,20.86286Z" fill="#fff" opacity="0.08"/>
      <path d="M9.6135,20.15856H1.574a.16467.16467,0,0,1-.1641-.1642h0a.16465.16465,0,0,1,.1641-.1641H9.6135a.16459.16459,0,0,1,.1641.1641h0A.16461.16461,0,0,1,9.6135,20.15856Z" fill="#fff" opacity="0.08"/>
      <path d="M9.6135,19.45416H1.574a.16459.16459,0,0,1-.1641-.1641h0a.16465.16465,0,0,1,.1641-.1641H9.6135a.16459.16459,0,0,1,.1641.1641h0A.16452.16452,0,0,1,9.6135,19.45416Z" fill="#fff" opacity="0.08"/>
      <path d="M9.6135,18.74986H1.574a.16459.16459,0,0,1-.1641-.1641h0a.16459.16459,0,0,1,.1641-.1641H9.6135a.16452.16452,0,0,1,.1641.1641h0A.16452.16452,0,0,1,9.6135,18.74986Z" fill="#fff" opacity="0.08"/>
      <g opacity="0.35" style="mix-blend-mode: multiply">
        <path d="M10.1668,16.95836v5.6892a.72738.72738,0,0,1-.7784.6564H8.9837c.0525-.1028.1096-.2056.1544-.3085a2.88268,2.88268,0,0,0,.1699-1.1017q.0429-1.8783.0856-3.756a1.552,1.552,0,0,0-.2789-1.134,2.38385,2.38385,0,0,0-1.7248-.4672q-2.0832-.0213-4.167-.0421a3.21909,3.21909,0,0,0-1.5029.2254,2.05692,2.05692,0,0,0-.6344.5563v-.3178a.72745.72745,0,0,1,.7784-.6565H9.3884A.72738.72738,0,0,1,10.1668,16.95836Z"/>
      </g>
      <g opacity="0.15" style="mix-blend-mode: multiply">
        <path d="M10.6858,1.77022V22.80236a.67514.67514,0,0,1-.7246.6111H5.1183c-.0019-.0564-.0032-.1127-.0039-.1685C4.9886,15.48836,7.0513,7.64386,6.0848,0h2.618a1.81685,1.81685,0,0,1,1.3894.60612l.2803.33369A1.29056,1.29056,0,0,1,10.6858,1.77022Z" fill="#2d2d2d"/>
      </g>
      <path d="M1.44019,23.04884h.71736a.18236.18236,0,0,1,.1823.18231h0a.18236.18236,0,0,1-.1823.18231H1.44019a.18229.18229,0,0,1-.1823-.18231h0A.18229.18229,0,0,1,1.44019,23.04884Z" fill="#eb0008"/>
      <path d="M9.16013,23.04884H9.8775a.18236.18236,0,0,1,.1823.18231h0a.18236.18236,0,0,1-.1823.18231H9.16013a.18229.18229,0,0,1-.1823-.18231h0A.18229.18229,0,0,1,9.16013,23.04884Z" fill="#eb0008"/>
    </g>
  </g>
</svg>
